<svg width="253" height="140" viewBox="0 0 253 140" fill="none" xmlns="http://www.w3.org/2000/svg">
<circle cx="70" cy="70" r="69" stroke="black" stroke-width="2"/>
<path d="M57.1587 61.152L51.3267 72.432V78H47.2227V72.432L41.3907 61.152H46.0467L49.3107 68.208L52.5507 61.152H57.1587ZM64.9082 78.192C63.5962 78.192 62.4122 77.912 61.3562 77.352C60.3162 76.792 59.4922 75.992 58.8842 74.952C58.2922 73.912 57.9962 72.696 57.9962 71.304C57.9962 69.928 58.3002 68.72 58.9082 67.68C59.5162 66.624 60.3482 65.816 61.4042 65.256C62.4602 64.696 63.6442 64.416 64.9562 64.416C66.2682 64.416 67.4522 64.696 68.5082 65.256C69.5642 65.816 70.3962 66.624 71.0042 67.68C71.6122 68.72 71.9162 69.928 71.9162 71.304C71.9162 72.68 71.6042 73.896 70.9802 74.952C70.3722 75.992 69.5322 76.792 68.4602 77.352C67.4042 77.912 66.2202 78.192 64.9082 78.192ZM64.9082 74.64C65.6922 74.64 66.3562 74.352 66.9002 73.776C67.4602 73.2 67.7402 72.376 67.7402 71.304C67.7402 70.232 67.4682 69.408 66.9242 68.832C66.3962 68.256 65.7402 67.968 64.9562 67.968C64.1562 67.968 63.4922 68.256 62.9642 68.832C62.4362 69.392 62.1722 70.216 62.1722 71.304C62.1722 72.376 62.4282 73.2 62.9402 73.776C63.4682 74.352 64.1242 74.64 64.9082 74.64ZM87.3175 64.608V78H83.2135V76.176C82.7975 76.768 82.2295 77.248 81.5095 77.616C80.8055 77.968 80.0215 78.144 79.1575 78.144C78.1335 78.144 77.2295 77.92 76.4455 77.472C75.6615 77.008 75.0535 76.344 74.6215 75.48C74.1895 74.616 73.9735 73.6 73.9735 72.432V64.608H78.0535V71.88C78.0535 72.776 78.2855 73.472 78.7495 73.968C79.2135 74.464 79.8375 74.712 80.6215 74.712C81.4215 74.712 82.0535 74.464 82.5175 73.968C82.9815 73.472 83.2135 72.776 83.2135 71.88V64.608H87.3175Z" fill="black"/>
<circle cx="183" cy="70" r="69" stroke="black" stroke-width="2"/>
<path d="M157.574 66.576C157.574 67.552 157.35 68.448 156.902 69.264C156.454 70.064 155.766 70.712 154.838 71.208C153.91 71.704 152.758 71.952 151.382 71.952H148.838V78H144.734V61.152H151.382C152.726 61.152 153.862 61.384 154.79 61.848C155.718 62.312 156.414 62.952 156.878 63.768C157.342 64.584 157.574 65.52 157.574 66.576ZM151.07 68.688C151.854 68.688 152.438 68.504 152.822 68.136C153.206 67.768 153.398 67.248 153.398 66.576C153.398 65.904 153.206 65.384 152.822 65.016C152.438 64.648 151.854 64.464 151.07 64.464H148.838V68.688H151.07ZM158.895 71.28C158.895 69.904 159.151 68.696 159.663 67.656C160.191 66.616 160.903 65.816 161.799 65.256C162.695 64.696 163.695 64.416 164.799 64.416C165.743 64.416 166.567 64.608 167.271 64.992C167.991 65.376 168.543 65.88 168.927 66.504V64.608H173.031V78H168.927V76.104C168.527 76.728 167.967 77.232 167.247 77.616C166.543 78 165.719 78.192 164.775 78.192C163.687 78.192 162.695 77.912 161.799 77.352C160.903 76.776 160.191 75.968 159.663 74.928C159.151 73.872 158.895 72.656 158.895 71.28ZM168.927 71.304C168.927 70.28 168.639 69.472 168.063 68.88C167.503 68.288 166.815 67.992 165.999 67.992C165.183 67.992 164.487 68.288 163.911 68.88C163.351 69.456 163.071 70.256 163.071 71.28C163.071 72.304 163.351 73.12 163.911 73.728C164.487 74.32 165.183 74.616 165.999 74.616C166.815 74.616 167.503 74.32 168.063 73.728C168.639 73.136 168.927 72.328 168.927 71.304ZM180.104 66.84C180.584 66.104 181.184 65.528 181.904 65.112C182.624 64.68 183.424 64.464 184.304 64.464V68.808H183.176C182.152 68.808 181.384 69.032 180.872 69.48C180.36 69.912 180.104 70.68 180.104 71.784V78H176V64.608H180.104V66.84ZM193.729 74.52V78H191.641C190.153 78 188.993 77.64 188.161 76.92C187.329 76.184 186.913 74.992 186.913 73.344V68.016H185.281V64.608H186.913V61.344H191.017V64.608H193.705V68.016H191.017V73.392C191.017 73.792 191.113 74.08 191.305 74.256C191.497 74.432 191.817 74.52 192.265 74.52H193.729ZM204.175 64.464C205.743 64.464 206.991 64.976 207.919 66C208.863 67.008 209.335 68.4 209.335 70.176V78H205.255V70.728C205.255 69.832 205.023 69.136 204.559 68.64C204.095 68.144 203.471 67.896 202.687 67.896C201.903 67.896 201.279 68.144 200.815 68.64C200.351 69.136 200.119 69.832 200.119 70.728V78H196.015V64.608H200.119V66.384C200.535 65.792 201.095 65.328 201.799 64.992C202.503 64.64 203.295 64.464 204.175 64.464ZM224.811 71.088C224.811 71.472 224.787 71.872 224.739 72.288H215.451C215.515 73.12 215.779 73.76 216.243 74.208C216.723 74.64 217.307 74.856 217.995 74.856C219.019 74.856 219.731 74.424 220.131 73.56H224.499C224.275 74.44 223.867 75.232 223.275 75.936C222.699 76.64 221.971 77.192 221.091 77.592C220.211 77.992 219.227 78.192 218.139 78.192C216.827 78.192 215.659 77.912 214.635 77.352C213.611 76.792 212.811 75.992 212.235 74.952C211.659 73.912 211.371 72.696 211.371 71.304C211.371 69.912 211.651 68.696 212.211 67.656C212.787 66.616 213.587 65.816 214.611 65.256C215.635 64.696 216.811 64.416 218.139 64.416C219.435 64.416 220.587 64.688 221.595 65.232C222.603 65.776 223.387 66.552 223.947 67.56C224.523 68.568 224.811 69.744 224.811 71.088ZM220.611 70.008C220.611 69.304 220.371 68.744 219.891 68.328C219.411 67.912 218.811 67.704 218.091 67.704C217.403 67.704 216.819 67.904 216.339 68.304C215.875 68.704 215.587 69.272 215.475 70.008H220.611ZM231.08 66.84C231.56 66.104 232.16 65.528 232.88 65.112C233.6 64.68 234.4 64.464 235.28 64.464V68.808H234.152C233.128 68.808 232.36 69.032 231.848 69.48C231.336 69.912 231.08 70.68 231.08 71.784V78H226.976V64.608H231.08V66.84Z" fill="black"/>
</svg>
