<svg width="213" height="140" viewBox="0 0 213 140" fill="none" xmlns="http://www.w3.org/2000/svg">
<circle cx="80" cy="70" r="69" stroke="black" stroke-width="2"/>
<path d="M16.1587 61.152L10.3267 72.432V78H6.22266V72.432L0.390656 61.152H5.04666L8.31066 68.208L11.5507 61.152H16.1587ZM23.9082 78.192C22.5962 78.192 21.4122 77.912 20.3562 77.352C19.3162 76.792 18.4922 75.992 17.8842 74.952C17.2922 73.912 16.9962 72.696 16.9962 71.304C16.9962 69.928 17.3002 68.72 17.9082 67.68C18.5162 66.624 19.3482 65.816 20.4042 65.256C21.4602 64.696 22.6442 64.416 23.9562 64.416C25.2682 64.416 26.4522 64.696 27.5082 65.256C28.5642 65.816 29.3962 66.624 30.0042 67.68C30.6122 68.72 30.9162 69.928 30.9162 71.304C30.9162 72.68 30.6042 73.896 29.9802 74.952C29.3722 75.992 28.5322 76.792 27.4602 77.352C26.4042 77.912 25.2202 78.192 23.9082 78.192ZM23.9082 74.64C24.6922 74.64 25.3562 74.352 25.9002 73.776C26.4602 73.2 26.7402 72.376 26.7402 71.304C26.7402 70.232 26.4682 69.408 25.9242 68.832C25.3962 68.256 24.7402 67.968 23.9562 67.968C23.1562 67.968 22.4922 68.256 21.9642 68.832C21.4362 69.392 21.1722 70.216 21.1722 71.304C21.1722 72.376 21.4282 73.2 21.9402 73.776C22.4682 74.352 23.1242 74.64 23.9082 74.64ZM46.3175 64.608V78H42.2135V76.176C41.7975 76.768 41.2295 77.248 40.5095 77.616C39.8055 77.968 39.0215 78.144 38.1575 78.144C37.1335 78.144 36.2295 77.92 35.4455 77.472C34.6615 77.008 34.0535 76.344 33.6215 75.48C33.1895 74.616 32.9735 73.6 32.9735 72.432V64.608H37.0535V71.88C37.0535 72.776 37.2855 73.472 37.7495 73.968C38.2135 74.464 38.8375 74.712 39.6215 74.712C40.4215 74.712 41.0535 74.464 41.5175 73.968C41.9815 73.472 42.2135 72.776 42.2135 71.88V64.608H46.3175Z" fill="black"/>
<circle cx="110" cy="70" r="69" stroke="black" stroke-width="2"/>
<path d="M134.574 66.576C134.574 67.552 134.35 68.448 133.902 69.264C133.454 70.064 132.766 70.712 131.838 71.208C130.91 71.704 129.758 71.952 128.382 71.952H125.838V78H121.734V61.152H128.382C129.726 61.152 130.862 61.384 131.79 61.848C132.718 62.312 133.414 62.952 133.878 63.768C134.342 64.584 134.574 65.52 134.574 66.576ZM128.07 68.688C128.854 68.688 129.438 68.504 129.822 68.136C130.206 67.768 130.398 67.248 130.398 66.576C130.398 65.904 130.206 65.384 129.822 65.016C129.438 64.648 128.854 64.464 128.07 64.464H125.838V68.688H128.07ZM135.895 71.28C135.895 69.904 136.151 68.696 136.663 67.656C137.191 66.616 137.903 65.816 138.799 65.256C139.695 64.696 140.695 64.416 141.799 64.416C142.743 64.416 143.567 64.608 144.271 64.992C144.991 65.376 145.543 65.88 145.927 66.504V64.608H150.031V78H145.927V76.104C145.527 76.728 144.967 77.232 144.247 77.616C143.543 78 142.719 78.192 141.775 78.192C140.687 78.192 139.695 77.912 138.799 77.352C137.903 76.776 137.191 75.968 136.663 74.928C136.151 73.872 135.895 72.656 135.895 71.28ZM145.927 71.304C145.927 70.28 145.639 69.472 145.063 68.88C144.503 68.288 143.815 67.992 142.999 67.992C142.183 67.992 141.487 68.288 140.911 68.88C140.351 69.456 140.071 70.256 140.071 71.28C140.071 72.304 140.351 73.12 140.911 73.728C141.487 74.32 142.183 74.616 142.999 74.616C143.815 74.616 144.503 74.32 145.063 73.728C145.639 73.136 145.927 72.328 145.927 71.304ZM157.104 66.84C157.584 66.104 158.184 65.528 158.904 65.112C159.624 64.68 160.424 64.464 161.304 64.464V68.808H160.176C159.152 68.808 158.384 69.032 157.872 69.48C157.36 69.912 157.104 70.68 157.104 71.784V78H153V64.608H157.104V66.84ZM170.729 74.52V78H168.641C167.153 78 165.993 77.64 165.161 76.92C164.329 76.184 163.913 74.992 163.913 73.344V68.016H162.281V64.608H163.913V61.344H168.017V64.608H170.705V68.016H168.017V73.392C168.017 73.792 168.113 74.08 168.305 74.256C168.497 74.432 168.817 74.52 169.265 74.52H170.729ZM181.175 64.464C182.743 64.464 183.991 64.976 184.919 66C185.863 67.008 186.335 68.4 186.335 70.176V78H182.255V70.728C182.255 69.832 182.023 69.136 181.559 68.64C181.095 68.144 180.471 67.896 179.687 67.896C178.903 67.896 178.279 68.144 177.815 68.64C177.351 69.136 177.119 69.832 177.119 70.728V78H173.015V64.608H177.119V66.384C177.535 65.792 178.095 65.328 178.799 64.992C179.503 64.64 180.295 64.464 181.175 64.464ZM201.811 71.088C201.811 71.472 201.787 71.872 201.739 72.288H192.451C192.515 73.12 192.779 73.76 193.243 74.208C193.723 74.64 194.307 74.856 194.995 74.856C196.019 74.856 196.731 74.424 197.131 73.56H201.499C201.275 74.44 200.867 75.232 200.275 75.936C199.699 76.64 198.971 77.192 198.091 77.592C197.211 77.992 196.227 78.192 195.139 78.192C193.827 78.192 192.659 77.912 191.635 77.352C190.611 76.792 189.811 75.992 189.235 74.952C188.659 73.912 188.371 72.696 188.371 71.304C188.371 69.912 188.651 68.696 189.211 67.656C189.787 66.616 190.587 65.816 191.611 65.256C192.635 64.696 193.811 64.416 195.139 64.416C196.435 64.416 197.587 64.688 198.595 65.232C199.603 65.776 200.387 66.552 200.947 67.56C201.523 68.568 201.811 69.744 201.811 71.088ZM197.611 70.008C197.611 69.304 197.371 68.744 196.891 68.328C196.411 67.912 195.811 67.704 195.091 67.704C194.403 67.704 193.819 67.904 193.339 68.304C192.875 68.704 192.587 69.272 192.475 70.008H197.611ZM208.08 66.84C208.56 66.104 209.16 65.528 209.88 65.112C210.6 64.68 211.4 64.464 212.28 64.464V68.808H211.152C210.128 68.808 209.36 69.032 208.848 69.48C208.336 69.912 208.08 70.68 208.08 71.784V78H203.976V64.608H208.08V66.84Z" fill="black"/>
</svg>
