<svg width="180" height="140" viewBox="0 0 180 140" fill="none" xmlns="http://www.w3.org/2000/svg">
<circle cx="80" cy="70" r="69" stroke="black" stroke-width="2"/>
<path d="M16.1587 61.152L10.3267 72.432V78H6.22266V72.432L0.390656 61.152H5.04666L8.31066 68.208L11.5507 61.152H16.1587ZM23.9082 78.192C22.5962 78.192 21.4122 77.912 20.3562 77.352C19.3162 76.792 18.4922 75.992 17.8842 74.952C17.2922 73.912 16.9962 72.696 16.9962 71.304C16.9962 69.928 17.3002 68.72 17.9082 67.68C18.5162 66.624 19.3482 65.816 20.4042 65.256C21.4602 64.696 22.6442 64.416 23.9562 64.416C25.2682 64.416 26.4522 64.696 27.5082 65.256C28.5642 65.816 29.3962 66.624 30.0042 67.68C30.6122 68.72 30.9162 69.928 30.9162 71.304C30.9162 72.68 30.6042 73.896 29.9802 74.952C29.3722 75.992 28.5322 76.792 27.4602 77.352C26.4042 77.912 25.2202 78.192 23.9082 78.192ZM23.9082 74.64C24.6922 74.64 25.3562 74.352 25.9002 73.776C26.4602 73.2 26.7402 72.376 26.7402 71.304C26.7402 70.232 26.4682 69.408 25.9242 68.832C25.3962 68.256 24.7402 67.968 23.9562 67.968C23.1562 67.968 22.4922 68.256 21.9642 68.832C21.4362 69.392 21.1722 70.216 21.1722 71.304C21.1722 72.376 21.4282 73.2 21.9402 73.776C22.4682 74.352 23.1242 74.64 23.9082 74.64ZM46.3175 64.608V78H42.2135V76.176C41.7975 76.768 41.2295 77.248 40.5095 77.616C39.8055 77.968 39.0215 78.144 38.1575 78.144C37.1335 78.144 36.2295 77.92 35.4455 77.472C34.6615 77.008 34.0535 76.344 33.6215 75.48C33.1895 74.616 32.9735 73.6 32.9735 72.432V64.608H37.0535V71.88C37.0535 72.776 37.2855 73.472 37.7495 73.968C38.2135 74.464 38.8375 74.712 39.6215 74.712C40.4215 74.712 41.0535 74.464 41.5175 73.968C41.9815 73.472 42.2135 72.776 42.2135 71.88V64.608H46.3175Z" fill="black"/>
<circle cx="110" cy="70" r="69" stroke="black" stroke-width="2"/>
<path d="M166.089 75.024H159.801L158.793 78H154.497L160.593 61.152H165.345L171.441 78H167.097L166.089 75.024ZM165.033 71.856L162.945 65.688L160.881 71.856H165.033ZM177.401 61.152V78H173.297V61.152H177.401Z" fill="black"/>
</svg>
