<svg width="194" height="140" viewBox="0 0 194 140" fill="none" xmlns="http://www.w3.org/2000/svg">
<circle cx="70" cy="70" r="69" stroke="black" stroke-width="2"/>
<path d="M8.94338 78.168C7.71138 78.168 6.60738 77.968 5.63138 77.568C4.65538 77.168 3.87138 76.576 3.27938 75.792C2.70338 75.008 2.39938 74.064 2.36738 72.96H6.73538C6.79938 73.584 7.01538 74.064 7.38338 74.4C7.75138 74.72 8.23138 74.88 8.82338 74.88C9.43138 74.88 9.91138 74.744 10.2634 74.472C10.6154 74.184 10.7914 73.792 10.7914 73.296C10.7914 72.88 10.6474 72.536 10.3594 72.264C10.0874 71.992 9.74338 71.768 9.32738 71.592C8.92738 71.416 8.35138 71.216 7.59938 70.992C6.51138 70.656 5.62338 70.32 4.93538 69.984C4.24738 69.648 3.65538 69.152 3.15938 68.496C2.66338 67.84 2.41538 66.984 2.41538 65.928C2.41538 64.36 2.98338 63.136 4.11938 62.256C5.25538 61.36 6.73538 60.912 8.55938 60.912C10.4154 60.912 11.9114 61.36 13.0474 62.256C14.1834 63.136 14.7914 64.368 14.8714 65.952H10.4314C10.3994 65.408 10.1994 64.984 9.83138 64.68C9.46338 64.36 8.99138 64.2 8.41537 64.2C7.91938 64.2 7.51938 64.336 7.21538 64.608C6.91138 64.864 6.75938 65.24 6.75938 65.736C6.75938 66.28 7.01538 66.704 7.52737 67.008C8.03938 67.312 8.83938 67.64 9.92738 67.992C11.0154 68.36 11.8954 68.712 12.5674 69.048C13.2554 69.384 13.8474 69.872 14.3434 70.512C14.8394 71.152 15.0874 71.976 15.0874 72.984C15.0874 73.944 14.8394 74.816 14.3434 75.6C13.8634 76.384 13.1594 77.008 12.2314 77.472C11.3034 77.936 10.2074 78.168 8.94338 78.168ZM30.237 71.088C30.237 71.472 30.213 71.872 30.165 72.288H20.877C20.941 73.12 21.205 73.76 21.669 74.208C22.149 74.64 22.733 74.856 23.421 74.856C24.445 74.856 25.157 74.424 25.557 73.56H29.925C29.701 74.44 29.293 75.232 28.701 75.936C28.125 76.64 27.397 77.192 26.517 77.592C25.637 77.992 24.653 78.192 23.565 78.192C22.253 78.192 21.085 77.912 20.061 77.352C19.037 76.792 18.237 75.992 17.661 74.952C17.085 73.912 16.797 72.696 16.797 71.304C16.797 69.912 17.077 68.696 17.637 67.656C18.213 66.616 19.013 65.816 20.037 65.256C21.061 64.696 22.237 64.416 23.565 64.416C24.861 64.416 26.013 64.688 27.021 65.232C28.029 65.776 28.813 66.552 29.373 67.56C29.949 68.568 30.237 69.744 30.237 71.088ZM26.037 70.008C26.037 69.304 25.797 68.744 25.317 68.328C24.837 67.912 24.237 67.704 23.517 67.704C22.829 67.704 22.245 67.904 21.765 68.304C21.301 68.704 21.013 69.272 20.901 70.008H26.037ZM36.5061 60.24V78H32.4021V60.24H36.5061ZM46.2002 68.016H43.9922V78H39.8882V68.016H38.4002V64.608H39.8882V64.224C39.8882 62.576 40.3602 61.328 41.3042 60.48C42.2482 59.616 43.6322 59.184 45.4562 59.184C45.7602 59.184 45.9842 59.192 46.1282 59.208V62.688C45.3442 62.64 44.7922 62.752 44.4722 63.024C44.1522 63.296 43.9922 63.784 43.9922 64.488V64.608H46.2002V68.016Z" fill="black"/>
<circle cx="117" cy="70" r="69" stroke="black" stroke-width="2"/>
<path d="M133.534 78.168C131.95 78.168 130.494 77.8 129.166 77.064C127.854 76.328 126.806 75.304 126.022 73.992C125.254 72.664 124.87 71.176 124.87 69.528C124.87 67.88 125.254 66.4 126.022 65.088C126.806 63.776 127.854 62.752 129.166 62.016C130.494 61.28 131.95 60.912 133.534 60.912C135.118 60.912 136.566 61.28 137.878 62.016C139.206 62.752 140.246 63.776 140.998 65.088C141.766 66.4 142.15 67.88 142.15 69.528C142.15 71.176 141.766 72.664 140.998 73.992C140.23 75.304 139.19 76.328 137.878 77.064C136.566 77.8 135.118 78.168 133.534 78.168ZM133.534 74.424C134.878 74.424 135.95 73.976 136.75 73.08C137.566 72.184 137.974 71 137.974 69.528C137.974 68.04 137.566 66.856 136.75 65.976C135.95 65.08 134.878 64.632 133.534 64.632C132.174 64.632 131.086 65.072 130.27 65.952C129.47 66.832 129.07 68.024 129.07 69.528C129.07 71.016 129.47 72.208 130.27 73.104C131.086 73.984 132.174 74.424 133.534 74.424ZM151.897 74.52V78H149.809C148.321 78 147.161 77.64 146.329 76.92C145.497 76.184 145.081 74.992 145.081 73.344V68.016H143.449V64.608H145.081V61.344H149.185V64.608H151.873V68.016H149.185V73.392C149.185 73.792 149.281 74.08 149.473 74.256C149.665 74.432 149.985 74.52 150.433 74.52H151.897ZM162.415 64.464C163.951 64.464 165.183 64.976 166.111 66C167.039 67.008 167.503 68.4 167.503 70.176V78H163.423V70.728C163.423 69.832 163.191 69.136 162.727 68.64C162.263 68.144 161.639 67.896 160.855 67.896C160.071 67.896 159.447 68.144 158.983 68.64C158.519 69.136 158.287 69.832 158.287 70.728V78H154.183V60.24H158.287V66.408C158.703 65.816 159.271 65.344 159.991 64.992C160.711 64.64 161.519 64.464 162.415 64.464ZM182.979 71.088C182.979 71.472 182.955 71.872 182.907 72.288H173.619C173.683 73.12 173.947 73.76 174.411 74.208C174.891 74.64 175.475 74.856 176.163 74.856C177.187 74.856 177.899 74.424 178.299 73.56H182.667C182.443 74.44 182.035 75.232 181.443 75.936C180.867 76.64 180.139 77.192 179.259 77.592C178.379 77.992 177.395 78.192 176.307 78.192C174.995 78.192 173.827 77.912 172.803 77.352C171.779 76.792 170.979 75.992 170.403 74.952C169.827 73.912 169.539 72.696 169.539 71.304C169.539 69.912 169.819 68.696 170.379 67.656C170.955 66.616 171.755 65.816 172.779 65.256C173.803 64.696 174.979 64.416 176.307 64.416C177.603 64.416 178.755 64.688 179.763 65.232C180.771 65.776 181.555 66.552 182.115 67.56C182.691 68.568 182.979 69.744 182.979 71.088ZM178.779 70.008C178.779 69.304 178.539 68.744 178.059 68.328C177.579 67.912 176.979 67.704 176.259 67.704C175.571 67.704 174.987 67.904 174.507 68.304C174.043 68.704 173.755 69.272 173.643 70.008H178.779ZM189.248 66.84C189.728 66.104 190.328 65.528 191.048 65.112C191.768 64.68 192.568 64.464 193.448 64.464V68.808H192.32C191.296 68.808 190.528 69.032 190.016 69.48C189.504 69.912 189.248 70.68 189.248 71.784V78H185.144V64.608H189.248V66.84Z" fill="black"/>
</svg>
