<svg width="280" height="140" viewBox="0 0 280 140" fill="none" xmlns="http://www.w3.org/2000/svg">
<circle cx="70" cy="70" r="69" stroke="black" stroke-width="2"/>
<path d="M54.9434 78.168C53.7114 78.168 52.6074 77.968 51.6314 77.568C50.6554 77.168 49.8714 76.576 49.2794 75.792C48.7034 75.008 48.3994 74.064 48.3674 72.96H52.7354C52.7994 73.584 53.0154 74.064 53.3834 74.4C53.7514 74.72 54.2314 74.88 54.8234 74.88C55.4314 74.88 55.9114 74.744 56.2634 74.472C56.6154 74.184 56.7914 73.792 56.7914 73.296C56.7914 72.88 56.6474 72.536 56.3594 72.264C56.0874 71.992 55.7434 71.768 55.3274 71.592C54.9274 71.416 54.3514 71.216 53.5994 70.992C52.5114 70.656 51.6234 70.32 50.9354 69.984C50.2474 69.648 49.6554 69.152 49.1594 68.496C48.6634 67.84 48.4154 66.984 48.4154 65.928C48.4154 64.36 48.9834 63.136 50.1194 62.256C51.2554 61.36 52.7354 60.912 54.5594 60.912C56.4154 60.912 57.9114 61.36 59.0474 62.256C60.1834 63.136 60.7914 64.368 60.8714 65.952H56.4314C56.3994 65.408 56.1994 64.984 55.8314 64.68C55.4634 64.36 54.9914 64.2 54.4154 64.2C53.9194 64.2 53.5194 64.336 53.2154 64.608C52.9114 64.864 52.7594 65.24 52.7594 65.736C52.7594 66.28 53.0154 66.704 53.5274 67.008C54.0394 67.312 54.8394 67.64 55.9274 67.992C57.0154 68.36 57.8954 68.712 58.5674 69.048C59.2554 69.384 59.8474 69.872 60.3434 70.512C60.8394 71.152 61.0874 71.976 61.0874 72.984C61.0874 73.944 60.8394 74.816 60.3434 75.6C59.8634 76.384 59.1594 77.008 58.2314 77.472C57.3034 77.936 56.2074 78.168 54.9434 78.168ZM76.237 71.088C76.237 71.472 76.213 71.872 76.165 72.288H66.877C66.941 73.12 67.205 73.76 67.669 74.208C68.149 74.64 68.733 74.856 69.421 74.856C70.445 74.856 71.157 74.424 71.557 73.56H75.925C75.701 74.44 75.293 75.232 74.701 75.936C74.125 76.64 73.397 77.192 72.517 77.592C71.637 77.992 70.653 78.192 69.565 78.192C68.253 78.192 67.085 77.912 66.061 77.352C65.037 76.792 64.237 75.992 63.661 74.952C63.085 73.912 62.797 72.696 62.797 71.304C62.797 69.912 63.077 68.696 63.637 67.656C64.213 66.616 65.013 65.816 66.037 65.256C67.061 64.696 68.237 64.416 69.565 64.416C70.861 64.416 72.013 64.688 73.021 65.232C74.029 65.776 74.813 66.552 75.373 67.56C75.949 68.568 76.237 69.744 76.237 71.088ZM72.037 70.008C72.037 69.304 71.797 68.744 71.317 68.328C70.837 67.912 70.237 67.704 69.517 67.704C68.829 67.704 68.245 67.904 67.765 68.304C67.301 68.704 67.013 69.272 66.901 70.008H72.037ZM82.5061 60.24V78H78.4021V60.24H82.5061ZM92.2002 68.016H89.9922V78H85.8882V68.016H84.4002V64.608H85.8882V64.224C85.8882 62.576 86.3602 61.328 87.3042 60.48C88.2482 59.616 89.6322 59.184 91.4562 59.184C91.7602 59.184 91.9842 59.192 92.1282 59.208V62.688C91.3442 62.64 90.7922 62.752 90.4722 63.024C90.1522 63.296 89.9922 63.784 89.9922 64.488V64.608H92.2002V68.016Z" fill="black"/>
<circle cx="210" cy="70" r="69" stroke="black" stroke-width="2"/>
<path d="M184.534 78.168C182.95 78.168 181.494 77.8 180.166 77.064C178.854 76.328 177.806 75.304 177.022 73.992C176.254 72.664 175.87 71.176 175.87 69.528C175.87 67.88 176.254 66.4 177.022 65.088C177.806 63.776 178.854 62.752 180.166 62.016C181.494 61.28 182.95 60.912 184.534 60.912C186.118 60.912 187.566 61.28 188.878 62.016C190.206 62.752 191.246 63.776 191.998 65.088C192.766 66.4 193.15 67.88 193.15 69.528C193.15 71.176 192.766 72.664 191.998 73.992C191.23 75.304 190.19 76.328 188.878 77.064C187.566 77.8 186.118 78.168 184.534 78.168ZM184.534 74.424C185.878 74.424 186.95 73.976 187.75 73.08C188.566 72.184 188.974 71 188.974 69.528C188.974 68.04 188.566 66.856 187.75 65.976C186.95 65.08 185.878 64.632 184.534 64.632C183.174 64.632 182.086 65.072 181.27 65.952C180.47 66.832 180.07 68.024 180.07 69.528C180.07 71.016 180.47 72.208 181.27 73.104C182.086 73.984 183.174 74.424 184.534 74.424ZM202.897 74.52V78H200.809C199.321 78 198.161 77.64 197.329 76.92C196.497 76.184 196.081 74.992 196.081 73.344V68.016H194.449V64.608H196.081V61.344H200.185V64.608H202.873V68.016H200.185V73.392C200.185 73.792 200.281 74.08 200.473 74.256C200.665 74.432 200.985 74.52 201.433 74.52H202.897ZM213.415 64.464C214.951 64.464 216.183 64.976 217.111 66C218.039 67.008 218.503 68.4 218.503 70.176V78H214.423V70.728C214.423 69.832 214.191 69.136 213.727 68.64C213.263 68.144 212.639 67.896 211.855 67.896C211.071 67.896 210.447 68.144 209.983 68.64C209.519 69.136 209.287 69.832 209.287 70.728V78H205.183V60.24H209.287V66.408C209.703 65.816 210.271 65.344 210.991 64.992C211.711 64.64 212.519 64.464 213.415 64.464ZM233.979 71.088C233.979 71.472 233.955 71.872 233.907 72.288H224.619C224.683 73.12 224.947 73.76 225.411 74.208C225.891 74.64 226.475 74.856 227.163 74.856C228.187 74.856 228.899 74.424 229.299 73.56H233.667C233.443 74.44 233.035 75.232 232.443 75.936C231.867 76.64 231.139 77.192 230.259 77.592C229.379 77.992 228.395 78.192 227.307 78.192C225.995 78.192 224.827 77.912 223.803 77.352C222.779 76.792 221.979 75.992 221.403 74.952C220.827 73.912 220.539 72.696 220.539 71.304C220.539 69.912 220.819 68.696 221.379 67.656C221.955 66.616 222.755 65.816 223.779 65.256C224.803 64.696 225.979 64.416 227.307 64.416C228.603 64.416 229.755 64.688 230.763 65.232C231.771 65.776 232.555 66.552 233.115 67.56C233.691 68.568 233.979 69.744 233.979 71.088ZM229.779 70.008C229.779 69.304 229.539 68.744 229.059 68.328C228.579 67.912 227.979 67.704 227.259 67.704C226.571 67.704 225.987 67.904 225.507 68.304C225.043 68.704 224.755 69.272 224.643 70.008H229.779ZM240.248 66.84C240.728 66.104 241.328 65.528 242.048 65.112C242.768 64.68 243.568 64.464 244.448 64.464V68.808H243.32C242.296 68.808 241.528 69.032 241.016 69.48C240.504 69.912 240.248 70.68 240.248 71.784V78H236.144V64.608H240.248V66.84Z" fill="black"/>
</svg>
