<svg width="227" height="140" viewBox="0 0 227 140" fill="none" xmlns="http://www.w3.org/2000/svg">
<circle cx="70" cy="70" r="69" stroke="black" stroke-width="2"/>
<path d="M39.1587 61.152L33.3267 72.432V78H29.2227V72.432L23.3907 61.152H28.0467L31.3107 68.208L34.5507 61.152H39.1587ZM46.9082 78.192C45.5962 78.192 44.4122 77.912 43.3562 77.352C42.3162 76.792 41.4922 75.992 40.8842 74.952C40.2922 73.912 39.9962 72.696 39.9962 71.304C39.9962 69.928 40.3002 68.72 40.9082 67.68C41.5162 66.624 42.3482 65.816 43.4042 65.256C44.4602 64.696 45.6442 64.416 46.9562 64.416C48.2682 64.416 49.4522 64.696 50.5082 65.256C51.5642 65.816 52.3962 66.624 53.0042 67.68C53.6122 68.72 53.9162 69.928 53.9162 71.304C53.9162 72.68 53.6042 73.896 52.9802 74.952C52.3722 75.992 51.5322 76.792 50.4602 77.352C49.4042 77.912 48.2202 78.192 46.9082 78.192ZM46.9082 74.64C47.6922 74.64 48.3562 74.352 48.9002 73.776C49.4602 73.2 49.7402 72.376 49.7402 71.304C49.7402 70.232 49.4682 69.408 48.9242 68.832C48.3962 68.256 47.7402 67.968 46.9562 67.968C46.1562 67.968 45.4922 68.256 44.9642 68.832C44.4362 69.392 44.1722 70.216 44.1722 71.304C44.1722 72.376 44.4282 73.2 44.9402 73.776C45.4682 74.352 46.1242 74.64 46.9082 74.64ZM69.3175 64.608V78H65.2135V76.176C64.7975 76.768 64.2295 77.248 63.5095 77.616C62.8055 77.968 62.0215 78.144 61.1575 78.144C60.1335 78.144 59.2295 77.92 58.4455 77.472C57.6615 77.008 57.0535 76.344 56.6215 75.48C56.1895 74.616 55.9735 73.6 55.9735 72.432V64.608H60.0535V71.88C60.0535 72.776 60.2855 73.472 60.7495 73.968C61.2135 74.464 61.8375 74.712 62.6215 74.712C63.4215 74.712 64.0535 74.464 64.5175 73.968C64.9815 73.472 65.2135 72.776 65.2135 71.88V64.608H69.3175Z" fill="black"/>
<circle cx="152" cy="70" r="69" stroke="black" stroke-width="2"/>
<path d="M148.574 66.576C148.574 67.552 148.35 68.448 147.902 69.264C147.454 70.064 146.766 70.712 145.838 71.208C144.91 71.704 143.758 71.952 142.382 71.952H139.838V78H135.734V61.152H142.382C143.726 61.152 144.862 61.384 145.79 61.848C146.718 62.312 147.414 62.952 147.878 63.768C148.342 64.584 148.574 65.52 148.574 66.576ZM142.07 68.688C142.854 68.688 143.438 68.504 143.822 68.136C144.206 67.768 144.398 67.248 144.398 66.576C144.398 65.904 144.206 65.384 143.822 65.016C143.438 64.648 142.854 64.464 142.07 64.464H139.838V68.688H142.07ZM149.895 71.28C149.895 69.904 150.151 68.696 150.663 67.656C151.191 66.616 151.903 65.816 152.799 65.256C153.695 64.696 154.695 64.416 155.799 64.416C156.743 64.416 157.567 64.608 158.271 64.992C158.991 65.376 159.543 65.88 159.927 66.504V64.608H164.031V78H159.927V76.104C159.527 76.728 158.967 77.232 158.247 77.616C157.543 78 156.719 78.192 155.775 78.192C154.687 78.192 153.695 77.912 152.799 77.352C151.903 76.776 151.191 75.968 150.663 74.928C150.151 73.872 149.895 72.656 149.895 71.28ZM159.927 71.304C159.927 70.28 159.639 69.472 159.063 68.88C158.503 68.288 157.815 67.992 156.999 67.992C156.183 67.992 155.487 68.288 154.911 68.88C154.351 69.456 154.071 70.256 154.071 71.28C154.071 72.304 154.351 73.12 154.911 73.728C155.487 74.32 156.183 74.616 156.999 74.616C157.815 74.616 158.503 74.32 159.063 73.728C159.639 73.136 159.927 72.328 159.927 71.304ZM171.104 66.84C171.584 66.104 172.184 65.528 172.904 65.112C173.624 64.68 174.424 64.464 175.304 64.464V68.808H174.176C173.152 68.808 172.384 69.032 171.872 69.48C171.36 69.912 171.104 70.68 171.104 71.784V78H167V64.608H171.104V66.84ZM184.729 74.52V78H182.641C181.153 78 179.993 77.64 179.161 76.92C178.329 76.184 177.913 74.992 177.913 73.344V68.016H176.281V64.608H177.913V61.344H182.017V64.608H184.705V68.016H182.017V73.392C182.017 73.792 182.113 74.08 182.305 74.256C182.497 74.432 182.817 74.52 183.265 74.52H184.729ZM195.175 64.464C196.743 64.464 197.991 64.976 198.919 66C199.863 67.008 200.335 68.4 200.335 70.176V78H196.255V70.728C196.255 69.832 196.023 69.136 195.559 68.64C195.095 68.144 194.471 67.896 193.687 67.896C192.903 67.896 192.279 68.144 191.815 68.64C191.351 69.136 191.119 69.832 191.119 70.728V78H187.015V64.608H191.119V66.384C191.535 65.792 192.095 65.328 192.799 64.992C193.503 64.64 194.295 64.464 195.175 64.464ZM215.811 71.088C215.811 71.472 215.787 71.872 215.739 72.288H206.451C206.515 73.12 206.779 73.76 207.243 74.208C207.723 74.64 208.307 74.856 208.995 74.856C210.019 74.856 210.731 74.424 211.131 73.56H215.499C215.275 74.44 214.867 75.232 214.275 75.936C213.699 76.64 212.971 77.192 212.091 77.592C211.211 77.992 210.227 78.192 209.139 78.192C207.827 78.192 206.659 77.912 205.635 77.352C204.611 76.792 203.811 75.992 203.235 74.952C202.659 73.912 202.371 72.696 202.371 71.304C202.371 69.912 202.651 68.696 203.211 67.656C203.787 66.616 204.587 65.816 205.611 65.256C206.635 64.696 207.811 64.416 209.139 64.416C210.435 64.416 211.587 64.688 212.595 65.232C213.603 65.776 214.387 66.552 214.947 67.56C215.523 68.568 215.811 69.744 215.811 71.088ZM211.611 70.008C211.611 69.304 211.371 68.744 210.891 68.328C210.411 67.912 209.811 67.704 209.091 67.704C208.403 67.704 207.819 67.904 207.339 68.304C206.875 68.704 206.587 69.272 206.475 70.008H211.611ZM222.08 66.84C222.56 66.104 223.16 65.528 223.88 65.112C224.6 64.68 225.4 64.464 226.28 64.464V68.808H225.152C224.128 68.808 223.36 69.032 222.848 69.48C222.336 69.912 222.08 70.68 222.08 71.784V78H217.976V64.608H222.08V66.84Z" fill="black"/>
</svg>
