<svg width="214" height="140" viewBox="0 0 214 140" fill="none" xmlns="http://www.w3.org/2000/svg">
<circle cx="70" cy="70" r="69" stroke="black" stroke-width="2"/>
<path d="M20.1587 61.152L14.3267 72.432V78H10.2227V72.432L4.39066 61.152H9.04666L12.3107 68.208L15.5507 61.152H20.1587ZM27.9082 78.192C26.5962 78.192 25.4122 77.912 24.3562 77.352C23.3162 76.792 22.4922 75.992 21.8842 74.952C21.2922 73.912 20.9962 72.696 20.9962 71.304C20.9962 69.928 21.3002 68.72 21.9082 67.68C22.5162 66.624 23.3482 65.816 24.4042 65.256C25.4602 64.696 26.6442 64.416 27.9562 64.416C29.2682 64.416 30.4522 64.696 31.5082 65.256C32.5642 65.816 33.3962 66.624 34.0042 67.68C34.6122 68.72 34.9162 69.928 34.9162 71.304C34.9162 72.68 34.6042 73.896 33.9802 74.952C33.3722 75.992 32.5322 76.792 31.4602 77.352C30.4042 77.912 29.2202 78.192 27.9082 78.192ZM27.9082 74.64C28.6922 74.64 29.3562 74.352 29.9002 73.776C30.4602 73.2 30.7402 72.376 30.7402 71.304C30.7402 70.232 30.4682 69.408 29.9242 68.832C29.3962 68.256 28.7402 67.968 27.9562 67.968C27.1562 67.968 26.4922 68.256 25.9642 68.832C25.4362 69.392 25.1722 70.216 25.1722 71.304C25.1722 72.376 25.4282 73.2 25.9402 73.776C26.4682 74.352 27.1242 74.64 27.9082 74.64ZM50.3175 64.608V78H46.2135V76.176C45.7975 76.768 45.2295 77.248 44.5095 77.616C43.8055 77.968 43.0215 78.144 42.1575 78.144C41.1335 78.144 40.2295 77.92 39.4455 77.472C38.6615 77.008 38.0535 76.344 37.6215 75.48C37.1895 74.616 36.9735 73.6 36.9735 72.432V64.608H41.0535V71.88C41.0535 72.776 41.2855 73.472 41.7495 73.968C42.2135 74.464 42.8375 74.712 43.6215 74.712C44.4215 74.712 45.0535 74.464 45.5175 73.968C45.9815 73.472 46.2135 72.776 46.2135 71.88V64.608H50.3175Z" fill="black"/>
<circle cx="122" cy="70" r="69" stroke="black" stroke-width="2"/>
<path d="M135.574 66.576C135.574 67.552 135.35 68.448 134.902 69.264C134.454 70.064 133.766 70.712 132.838 71.208C131.91 71.704 130.758 71.952 129.382 71.952H126.838V78H122.734V61.152H129.382C130.726 61.152 131.862 61.384 132.79 61.848C133.718 62.312 134.414 62.952 134.878 63.768C135.342 64.584 135.574 65.52 135.574 66.576ZM129.07 68.688C129.854 68.688 130.438 68.504 130.822 68.136C131.206 67.768 131.398 67.248 131.398 66.576C131.398 65.904 131.206 65.384 130.822 65.016C130.438 64.648 129.854 64.464 129.07 64.464H126.838V68.688H129.07ZM136.895 71.28C136.895 69.904 137.151 68.696 137.663 67.656C138.191 66.616 138.903 65.816 139.799 65.256C140.695 64.696 141.695 64.416 142.799 64.416C143.743 64.416 144.567 64.608 145.271 64.992C145.991 65.376 146.543 65.88 146.927 66.504V64.608H151.031V78H146.927V76.104C146.527 76.728 145.967 77.232 145.247 77.616C144.543 78 143.719 78.192 142.775 78.192C141.687 78.192 140.695 77.912 139.799 77.352C138.903 76.776 138.191 75.968 137.663 74.928C137.151 73.872 136.895 72.656 136.895 71.28ZM146.927 71.304C146.927 70.28 146.639 69.472 146.063 68.88C145.503 68.288 144.815 67.992 143.999 67.992C143.183 67.992 142.487 68.288 141.911 68.88C141.351 69.456 141.071 70.256 141.071 71.28C141.071 72.304 141.351 73.12 141.911 73.728C142.487 74.32 143.183 74.616 143.999 74.616C144.815 74.616 145.503 74.32 146.063 73.728C146.639 73.136 146.927 72.328 146.927 71.304ZM158.104 66.84C158.584 66.104 159.184 65.528 159.904 65.112C160.624 64.68 161.424 64.464 162.304 64.464V68.808H161.176C160.152 68.808 159.384 69.032 158.872 69.48C158.36 69.912 158.104 70.68 158.104 71.784V78H154V64.608H158.104V66.84ZM171.729 74.52V78H169.641C168.153 78 166.993 77.64 166.161 76.92C165.329 76.184 164.913 74.992 164.913 73.344V68.016H163.281V64.608H164.913V61.344H169.017V64.608H171.705V68.016H169.017V73.392C169.017 73.792 169.113 74.08 169.305 74.256C169.497 74.432 169.817 74.52 170.265 74.52H171.729ZM182.175 64.464C183.743 64.464 184.991 64.976 185.919 66C186.863 67.008 187.335 68.4 187.335 70.176V78H183.255V70.728C183.255 69.832 183.023 69.136 182.559 68.64C182.095 68.144 181.471 67.896 180.687 67.896C179.903 67.896 179.279 68.144 178.815 68.64C178.351 69.136 178.119 69.832 178.119 70.728V78H174.015V64.608H178.119V66.384C178.535 65.792 179.095 65.328 179.799 64.992C180.503 64.64 181.295 64.464 182.175 64.464ZM202.811 71.088C202.811 71.472 202.787 71.872 202.739 72.288H193.451C193.515 73.12 193.779 73.76 194.243 74.208C194.723 74.64 195.307 74.856 195.995 74.856C197.019 74.856 197.731 74.424 198.131 73.56H202.499C202.275 74.44 201.867 75.232 201.275 75.936C200.699 76.64 199.971 77.192 199.091 77.592C198.211 77.992 197.227 78.192 196.139 78.192C194.827 78.192 193.659 77.912 192.635 77.352C191.611 76.792 190.811 75.992 190.235 74.952C189.659 73.912 189.371 72.696 189.371 71.304C189.371 69.912 189.651 68.696 190.211 67.656C190.787 66.616 191.587 65.816 192.611 65.256C193.635 64.696 194.811 64.416 196.139 64.416C197.435 64.416 198.587 64.688 199.595 65.232C200.603 65.776 201.387 66.552 201.947 67.56C202.523 68.568 202.811 69.744 202.811 71.088ZM198.611 70.008C198.611 69.304 198.371 68.744 197.891 68.328C197.411 67.912 196.811 67.704 196.091 67.704C195.403 67.704 194.819 67.904 194.339 68.304C193.875 68.704 193.587 69.272 193.475 70.008H198.611ZM209.08 66.84C209.56 66.104 210.16 65.528 210.88 65.112C211.6 64.68 212.4 64.464 213.28 64.464V68.808H212.152C211.128 68.808 210.36 69.032 209.848 69.48C209.336 69.912 209.08 70.68 209.08 71.784V78H204.976V64.608H209.08V66.84Z" fill="black"/>
</svg>
