<svg width="280" height="140" viewBox="0 0 280 140" fill="none" xmlns="http://www.w3.org/2000/svg">
<circle cx="70" cy="70" r="69" stroke="black" stroke-width="2"/>
<path d="M62.1587 61.152L56.3267 72.432V78H52.2227V72.432L46.3907 61.152H51.0467L54.3107 68.208L57.5507 61.152H62.1587ZM69.9082 78.192C68.5962 78.192 67.4122 77.912 66.3562 77.352C65.3162 76.792 64.4922 75.992 63.8842 74.952C63.2922 73.912 62.9962 72.696 62.9962 71.304C62.9962 69.928 63.3002 68.72 63.9082 67.68C64.5162 66.624 65.3482 65.816 66.4042 65.256C67.4602 64.696 68.6442 64.416 69.9562 64.416C71.2682 64.416 72.4522 64.696 73.5082 65.256C74.5642 65.816 75.3962 66.624 76.0042 67.68C76.6122 68.72 76.9162 69.928 76.9162 71.304C76.9162 72.68 76.6042 73.896 75.9802 74.952C75.3722 75.992 74.5322 76.792 73.4602 77.352C72.4042 77.912 71.2202 78.192 69.9082 78.192ZM69.9082 74.64C70.6922 74.64 71.3562 74.352 71.9002 73.776C72.4602 73.2 72.7402 72.376 72.7402 71.304C72.7402 70.232 72.4682 69.408 71.9242 68.832C71.3962 68.256 70.7402 67.968 69.9562 67.968C69.1562 67.968 68.4922 68.256 67.9642 68.832C67.4362 69.392 67.1722 70.216 67.1722 71.304C67.1722 72.376 67.4282 73.2 67.9402 73.776C68.4682 74.352 69.1242 74.64 69.9082 74.64ZM92.3175 64.608V78H88.2135V76.176C87.7975 76.768 87.2295 77.248 86.5095 77.616C85.8055 77.968 85.0215 78.144 84.1575 78.144C83.1335 78.144 82.2295 77.92 81.4455 77.472C80.6615 77.008 80.0535 76.344 79.6215 75.48C79.1895 74.616 78.9735 73.6 78.9735 72.432V64.608H83.0535V71.88C83.0535 72.776 83.2855 73.472 83.7495 73.968C84.2135 74.464 84.8375 74.712 85.6215 74.712C86.4215 74.712 87.0535 74.464 87.5175 73.968C87.9815 73.472 88.2135 72.776 88.2135 71.88V64.608H92.3175Z" fill="black"/>
<circle cx="210" cy="70" r="69" stroke="black" stroke-width="2"/>
<path d="M178.574 66.576C178.574 67.552 178.35 68.448 177.902 69.264C177.454 70.064 176.766 70.712 175.838 71.208C174.91 71.704 173.758 71.952 172.382 71.952H169.838V78H165.734V61.152H172.382C173.726 61.152 174.862 61.384 175.79 61.848C176.718 62.312 177.414 62.952 177.878 63.768C178.342 64.584 178.574 65.52 178.574 66.576ZM172.07 68.688C172.854 68.688 173.438 68.504 173.822 68.136C174.206 67.768 174.398 67.248 174.398 66.576C174.398 65.904 174.206 65.384 173.822 65.016C173.438 64.648 172.854 64.464 172.07 64.464H169.838V68.688H172.07ZM179.895 71.28C179.895 69.904 180.151 68.696 180.663 67.656C181.191 66.616 181.903 65.816 182.799 65.256C183.695 64.696 184.695 64.416 185.799 64.416C186.743 64.416 187.567 64.608 188.271 64.992C188.991 65.376 189.543 65.88 189.927 66.504V64.608H194.031V78H189.927V76.104C189.527 76.728 188.967 77.232 188.247 77.616C187.543 78 186.719 78.192 185.775 78.192C184.687 78.192 183.695 77.912 182.799 77.352C181.903 76.776 181.191 75.968 180.663 74.928C180.151 73.872 179.895 72.656 179.895 71.28ZM189.927 71.304C189.927 70.28 189.639 69.472 189.063 68.88C188.503 68.288 187.815 67.992 186.999 67.992C186.183 67.992 185.487 68.288 184.911 68.88C184.351 69.456 184.071 70.256 184.071 71.28C184.071 72.304 184.351 73.12 184.911 73.728C185.487 74.32 186.183 74.616 186.999 74.616C187.815 74.616 188.503 74.32 189.063 73.728C189.639 73.136 189.927 72.328 189.927 71.304ZM201.104 66.84C201.584 66.104 202.184 65.528 202.904 65.112C203.624 64.68 204.424 64.464 205.304 64.464V68.808H204.176C203.152 68.808 202.384 69.032 201.872 69.48C201.36 69.912 201.104 70.68 201.104 71.784V78H197V64.608H201.104V66.84ZM214.729 74.52V78H212.641C211.153 78 209.993 77.64 209.161 76.92C208.329 76.184 207.913 74.992 207.913 73.344V68.016H206.281V64.608H207.913V61.344H212.017V64.608H214.705V68.016H212.017V73.392C212.017 73.792 212.113 74.08 212.305 74.256C212.497 74.432 212.817 74.52 213.265 74.52H214.729ZM225.175 64.464C226.743 64.464 227.991 64.976 228.919 66C229.863 67.008 230.335 68.4 230.335 70.176V78H226.255V70.728C226.255 69.832 226.023 69.136 225.559 68.64C225.095 68.144 224.471 67.896 223.687 67.896C222.903 67.896 222.279 68.144 221.815 68.64C221.351 69.136 221.119 69.832 221.119 70.728V78H217.015V64.608H221.119V66.384C221.535 65.792 222.095 65.328 222.799 64.992C223.503 64.64 224.295 64.464 225.175 64.464ZM245.811 71.088C245.811 71.472 245.787 71.872 245.739 72.288H236.451C236.515 73.12 236.779 73.76 237.243 74.208C237.723 74.64 238.307 74.856 238.995 74.856C240.019 74.856 240.731 74.424 241.131 73.56H245.499C245.275 74.44 244.867 75.232 244.275 75.936C243.699 76.64 242.971 77.192 242.091 77.592C241.211 77.992 240.227 78.192 239.139 78.192C237.827 78.192 236.659 77.912 235.635 77.352C234.611 76.792 233.811 75.992 233.235 74.952C232.659 73.912 232.371 72.696 232.371 71.304C232.371 69.912 232.651 68.696 233.211 67.656C233.787 66.616 234.587 65.816 235.611 65.256C236.635 64.696 237.811 64.416 239.139 64.416C240.435 64.416 241.587 64.688 242.595 65.232C243.603 65.776 244.387 66.552 244.947 67.56C245.523 68.568 245.811 69.744 245.811 71.088ZM241.611 70.008C241.611 69.304 241.371 68.744 240.891 68.328C240.411 67.912 239.811 67.704 239.091 67.704C238.403 67.704 237.819 67.904 237.339 68.304C236.875 68.704 236.587 69.272 236.475 70.008H241.611ZM252.08 66.84C252.56 66.104 253.16 65.528 253.88 65.112C254.6 64.68 255.4 64.464 256.28 64.464V68.808H255.152C254.128 68.808 253.36 69.032 252.848 69.48C252.336 69.912 252.08 70.68 252.08 71.784V78H247.976V64.608H252.08V66.84Z" fill="black"/>
</svg>
