<svg width="253" height="140" viewBox="0 0 253 140" fill="none" xmlns="http://www.w3.org/2000/svg">
<circle cx="70" cy="70" r="69" stroke="black" stroke-width="2"/>
<path d="M57.1587 61.152L51.3267 72.432V78H47.2227V72.432L41.3907 61.152H46.0467L49.3107 68.208L52.5507 61.152H57.1587ZM64.9082 78.192C63.5962 78.192 62.4122 77.912 61.3562 77.352C60.3162 76.792 59.4922 75.992 58.8842 74.952C58.2922 73.912 57.9962 72.696 57.9962 71.304C57.9962 69.928 58.3002 68.72 58.9082 67.68C59.5162 66.624 60.3482 65.816 61.4042 65.256C62.4602 64.696 63.6442 64.416 64.9562 64.416C66.2682 64.416 67.4522 64.696 68.5082 65.256C69.5642 65.816 70.3962 66.624 71.0042 67.68C71.6122 68.72 71.9162 69.928 71.9162 71.304C71.9162 72.68 71.6042 73.896 70.9802 74.952C70.3722 75.992 69.5322 76.792 68.4602 77.352C67.4042 77.912 66.2202 78.192 64.9082 78.192ZM64.9082 74.64C65.6922 74.64 66.3562 74.352 66.9002 73.776C67.4602 73.2 67.7402 72.376 67.7402 71.304C67.7402 70.232 67.4682 69.408 66.9242 68.832C66.3962 68.256 65.7402 67.968 64.9562 67.968C64.1562 67.968 63.4922 68.256 62.9642 68.832C62.4362 69.392 62.1722 70.216 62.1722 71.304C62.1722 72.376 62.4282 73.2 62.9402 73.776C63.4682 74.352 64.1242 74.64 64.9082 74.64ZM87.3175 64.608V78H83.2135V76.176C82.7975 76.768 82.2295 77.248 81.5095 77.616C80.8055 77.968 80.0215 78.144 79.1575 78.144C78.1335 78.144 77.2295 77.92 76.4455 77.472C75.6615 77.008 75.0535 76.344 74.6215 75.48C74.1895 74.616 73.9735 73.6 73.9735 72.432V64.608H78.0535V71.88C78.0535 72.776 78.2855 73.472 78.7495 73.968C79.2135 74.464 79.8375 74.712 80.6215 74.712C81.4215 74.712 82.0535 74.464 82.5175 73.968C82.9815 73.472 83.2135 72.776 83.2135 71.88V64.608H87.3175Z" fill="black"/>
<circle cx="183" cy="70" r="69" stroke="black" stroke-width="2"/>
<path d="M189.089 75.024H182.801L181.793 78H177.497L183.593 61.152H188.345L194.441 78H190.097L189.089 75.024ZM188.033 71.856L185.945 65.688L183.881 71.856H188.033ZM200.401 61.152V78H196.297V61.152H200.401Z" fill="black"/>
</svg>
