<svg width="200" height="140" viewBox="0 0 200 140" fill="none" xmlns="http://www.w3.org/2000/svg">
<circle cx="79" cy="70" r="69" stroke="black" stroke-width="2"/>
<path d="M7.94338 78.168C6.71138 78.168 5.60738 77.968 4.63138 77.568C3.65538 77.168 2.87138 76.576 2.27938 75.792C1.70338 75.008 1.39938 74.064 1.36738 72.96H5.73538C5.79938 73.584 6.01538 74.064 6.38338 74.4C6.75138 74.72 7.23138 74.88 7.82338 74.88C8.43138 74.88 8.91138 74.744 9.26338 74.472C9.61538 74.184 9.79138 73.792 9.79138 73.296C9.79138 72.88 9.64738 72.536 9.35938 72.264C9.08738 71.992 8.74338 71.768 8.32738 71.592C7.92738 71.416 7.35138 71.216 6.59938 70.992C5.51138 70.656 4.62338 70.32 3.93538 69.984C3.24738 69.648 2.65538 69.152 2.15938 68.496C1.66338 67.84 1.41538 66.984 1.41538 65.928C1.41538 64.36 1.98338 63.136 3.11938 62.256C4.25538 61.36 5.73538 60.912 7.55938 60.912C9.41538 60.912 10.9114 61.36 12.0474 62.256C13.1834 63.136 13.7914 64.368 13.8714 65.952H9.43138C9.39938 65.408 9.19938 64.984 8.83138 64.68C8.46338 64.36 7.99138 64.2 7.41537 64.2C6.91938 64.2 6.51938 64.336 6.21538 64.608C5.91138 64.864 5.75938 65.24 5.75938 65.736C5.75938 66.28 6.01538 66.704 6.52737 67.008C7.03938 67.312 7.83938 67.64 8.92738 67.992C10.0154 68.36 10.8954 68.712 11.5674 69.048C12.2554 69.384 12.8474 69.872 13.3434 70.512C13.8394 71.152 14.0874 71.976 14.0874 72.984C14.0874 73.944 13.8394 74.816 13.3434 75.6C12.8634 76.384 12.1594 77.008 11.2314 77.472C10.3034 77.936 9.20738 78.168 7.94338 78.168ZM29.237 71.088C29.237 71.472 29.213 71.872 29.165 72.288H19.877C19.941 73.12 20.205 73.76 20.669 74.208C21.149 74.64 21.733 74.856 22.421 74.856C23.445 74.856 24.157 74.424 24.557 73.56H28.925C28.701 74.44 28.293 75.232 27.701 75.936C27.125 76.64 26.397 77.192 25.517 77.592C24.637 77.992 23.653 78.192 22.565 78.192C21.253 78.192 20.085 77.912 19.061 77.352C18.037 76.792 17.237 75.992 16.661 74.952C16.085 73.912 15.797 72.696 15.797 71.304C15.797 69.912 16.077 68.696 16.637 67.656C17.213 66.616 18.013 65.816 19.037 65.256C20.061 64.696 21.237 64.416 22.565 64.416C23.861 64.416 25.013 64.688 26.021 65.232C27.029 65.776 27.813 66.552 28.373 67.56C28.949 68.568 29.237 69.744 29.237 71.088ZM25.037 70.008C25.037 69.304 24.797 68.744 24.317 68.328C23.837 67.912 23.237 67.704 22.517 67.704C21.829 67.704 21.245 67.904 20.765 68.304C20.301 68.704 20.013 69.272 19.901 70.008H25.037ZM35.5061 60.24V78H31.4021V60.24H35.5061ZM45.2002 68.016H42.9922V78H38.8882V68.016H37.4002V64.608H38.8882V64.224C38.8882 62.576 39.3602 61.328 40.3042 60.48C41.2482 59.616 42.6322 59.184 44.4562 59.184C44.7602 59.184 44.9842 59.192 45.1282 59.208V62.688C44.3442 62.64 43.7922 62.752 43.4722 63.024C43.1522 63.296 42.9922 63.784 42.9922 64.488V64.608H45.2002V68.016Z" fill="black"/>
<circle cx="109" cy="70" r="69" stroke="black" stroke-width="2"/>
<path d="M139.534 78.168C137.95 78.168 136.494 77.8 135.166 77.064C133.854 76.328 132.806 75.304 132.022 73.992C131.254 72.664 130.87 71.176 130.87 69.528C130.87 67.88 131.254 66.4 132.022 65.088C132.806 63.776 133.854 62.752 135.166 62.016C136.494 61.28 137.95 60.912 139.534 60.912C141.118 60.912 142.566 61.28 143.878 62.016C145.206 62.752 146.246 63.776 146.998 65.088C147.766 66.4 148.15 67.88 148.15 69.528C148.15 71.176 147.766 72.664 146.998 73.992C146.23 75.304 145.19 76.328 143.878 77.064C142.566 77.8 141.118 78.168 139.534 78.168ZM139.534 74.424C140.878 74.424 141.95 73.976 142.75 73.08C143.566 72.184 143.974 71 143.974 69.528C143.974 68.04 143.566 66.856 142.75 65.976C141.95 65.08 140.878 64.632 139.534 64.632C138.174 64.632 137.086 65.072 136.27 65.952C135.47 66.832 135.07 68.024 135.07 69.528C135.07 71.016 135.47 72.208 136.27 73.104C137.086 73.984 138.174 74.424 139.534 74.424ZM157.897 74.52V78H155.809C154.321 78 153.161 77.64 152.329 76.92C151.497 76.184 151.081 74.992 151.081 73.344V68.016H149.449V64.608H151.081V61.344H155.185V64.608H157.873V68.016H155.185V73.392C155.185 73.792 155.281 74.08 155.473 74.256C155.665 74.432 155.985 74.52 156.433 74.52H157.897ZM168.415 64.464C169.951 64.464 171.183 64.976 172.111 66C173.039 67.008 173.503 68.4 173.503 70.176V78H169.423V70.728C169.423 69.832 169.191 69.136 168.727 68.64C168.263 68.144 167.639 67.896 166.855 67.896C166.071 67.896 165.447 68.144 164.983 68.64C164.519 69.136 164.287 69.832 164.287 70.728V78H160.183V60.24H164.287V66.408C164.703 65.816 165.271 65.344 165.991 64.992C166.711 64.64 167.519 64.464 168.415 64.464ZM188.979 71.088C188.979 71.472 188.955 71.872 188.907 72.288H179.619C179.683 73.12 179.947 73.76 180.411 74.208C180.891 74.64 181.475 74.856 182.163 74.856C183.187 74.856 183.899 74.424 184.299 73.56H188.667C188.443 74.44 188.035 75.232 187.443 75.936C186.867 76.64 186.139 77.192 185.259 77.592C184.379 77.992 183.395 78.192 182.307 78.192C180.995 78.192 179.827 77.912 178.803 77.352C177.779 76.792 176.979 75.992 176.403 74.952C175.827 73.912 175.539 72.696 175.539 71.304C175.539 69.912 175.819 68.696 176.379 67.656C176.955 66.616 177.755 65.816 178.779 65.256C179.803 64.696 180.979 64.416 182.307 64.416C183.603 64.416 184.755 64.688 185.763 65.232C186.771 65.776 187.555 66.552 188.115 67.56C188.691 68.568 188.979 69.744 188.979 71.088ZM184.779 70.008C184.779 69.304 184.539 68.744 184.059 68.328C183.579 67.912 182.979 67.704 182.259 67.704C181.571 67.704 180.987 67.904 180.507 68.304C180.043 68.704 179.755 69.272 179.643 70.008H184.779ZM195.248 66.84C195.728 66.104 196.328 65.528 197.048 65.112C197.768 64.68 198.568 64.464 199.448 64.464V68.808H198.32C197.296 68.808 196.528 69.032 196.016 69.48C195.504 69.912 195.248 70.68 195.248 71.784V78H191.144V64.608H195.248V66.84Z" fill="black"/>
</svg>
