<svg width="238" height="140" viewBox="0 0 238 140" fill="none" xmlns="http://www.w3.org/2000/svg">
<circle cx="70" cy="70" r="69" stroke="black" stroke-width="2"/>
<path d="M53.1587 61.152L47.3267 72.432V78H43.2227V72.432L37.3907 61.152H42.0467L45.3107 68.208L48.5507 61.152H53.1587ZM60.9082 78.192C59.5962 78.192 58.4122 77.912 57.3562 77.352C56.3162 76.792 55.4922 75.992 54.8842 74.952C54.2922 73.912 53.9962 72.696 53.9962 71.304C53.9962 69.928 54.3002 68.72 54.9082 67.68C55.5162 66.624 56.3482 65.816 57.4042 65.256C58.4602 64.696 59.6442 64.416 60.9562 64.416C62.2682 64.416 63.4522 64.696 64.5082 65.256C65.5642 65.816 66.3962 66.624 67.0042 67.68C67.6122 68.72 67.9162 69.928 67.9162 71.304C67.9162 72.68 67.6042 73.896 66.9802 74.952C66.3722 75.992 65.5322 76.792 64.4602 77.352C63.4042 77.912 62.2202 78.192 60.9082 78.192ZM60.9082 74.64C61.6922 74.64 62.3562 74.352 62.9002 73.776C63.4602 73.2 63.7402 72.376 63.7402 71.304C63.7402 70.232 63.4682 69.408 62.9242 68.832C62.3962 68.256 61.7402 67.968 60.9562 67.968C60.1562 67.968 59.4922 68.256 58.9642 68.832C58.4362 69.392 58.1722 70.216 58.1722 71.304C58.1722 72.376 58.4282 73.2 58.9402 73.776C59.4682 74.352 60.1242 74.64 60.9082 74.64ZM83.3175 64.608V78H79.2135V76.176C78.7975 76.768 78.2295 77.248 77.5095 77.616C76.8055 77.968 76.0215 78.144 75.1575 78.144C74.1335 78.144 73.2295 77.92 72.4455 77.472C71.6615 77.008 71.0535 76.344 70.6215 75.48C70.1895 74.616 69.9735 73.6 69.9735 72.432V64.608H74.0535V71.88C74.0535 72.776 74.2855 73.472 74.7495 73.968C75.2135 74.464 75.8375 74.712 76.6215 74.712C77.4215 74.712 78.0535 74.464 78.5175 73.968C78.9815 73.472 79.2135 72.776 79.2135 71.88V64.608H83.3175Z" fill="black"/>
<circle cx="168" cy="70" r="69" stroke="black" stroke-width="2"/>
<path d="M150.574 66.576C150.574 67.552 150.35 68.448 149.902 69.264C149.454 70.064 148.766 70.712 147.838 71.208C146.91 71.704 145.758 71.952 144.382 71.952H141.838V78H137.734V61.152H144.382C145.726 61.152 146.862 61.384 147.79 61.848C148.718 62.312 149.414 62.952 149.878 63.768C150.342 64.584 150.574 65.52 150.574 66.576ZM144.07 68.688C144.854 68.688 145.438 68.504 145.822 68.136C146.206 67.768 146.398 67.248 146.398 66.576C146.398 65.904 146.206 65.384 145.822 65.016C145.438 64.648 144.854 64.464 144.07 64.464H141.838V68.688H144.07ZM151.895 71.28C151.895 69.904 152.151 68.696 152.663 67.656C153.191 66.616 153.903 65.816 154.799 65.256C155.695 64.696 156.695 64.416 157.799 64.416C158.743 64.416 159.567 64.608 160.271 64.992C160.991 65.376 161.543 65.88 161.927 66.504V64.608H166.031V78H161.927V76.104C161.527 76.728 160.967 77.232 160.247 77.616C159.543 78 158.719 78.192 157.775 78.192C156.687 78.192 155.695 77.912 154.799 77.352C153.903 76.776 153.191 75.968 152.663 74.928C152.151 73.872 151.895 72.656 151.895 71.28ZM161.927 71.304C161.927 70.28 161.639 69.472 161.063 68.88C160.503 68.288 159.815 67.992 158.999 67.992C158.183 67.992 157.487 68.288 156.911 68.88C156.351 69.456 156.071 70.256 156.071 71.28C156.071 72.304 156.351 73.12 156.911 73.728C157.487 74.32 158.183 74.616 158.999 74.616C159.815 74.616 160.503 74.32 161.063 73.728C161.639 73.136 161.927 72.328 161.927 71.304ZM173.104 66.84C173.584 66.104 174.184 65.528 174.904 65.112C175.624 64.68 176.424 64.464 177.304 64.464V68.808H176.176C175.152 68.808 174.384 69.032 173.872 69.48C173.36 69.912 173.104 70.68 173.104 71.784V78H169V64.608H173.104V66.84ZM186.729 74.52V78H184.641C183.153 78 181.993 77.64 181.161 76.92C180.329 76.184 179.913 74.992 179.913 73.344V68.016H178.281V64.608H179.913V61.344H184.017V64.608H186.705V68.016H184.017V73.392C184.017 73.792 184.113 74.08 184.305 74.256C184.497 74.432 184.817 74.52 185.265 74.52H186.729ZM197.175 64.464C198.743 64.464 199.991 64.976 200.919 66C201.863 67.008 202.335 68.4 202.335 70.176V78H198.255V70.728C198.255 69.832 198.023 69.136 197.559 68.64C197.095 68.144 196.471 67.896 195.687 67.896C194.903 67.896 194.279 68.144 193.815 68.64C193.351 69.136 193.119 69.832 193.119 70.728V78H189.015V64.608H193.119V66.384C193.535 65.792 194.095 65.328 194.799 64.992C195.503 64.64 196.295 64.464 197.175 64.464ZM217.811 71.088C217.811 71.472 217.787 71.872 217.739 72.288H208.451C208.515 73.12 208.779 73.76 209.243 74.208C209.723 74.64 210.307 74.856 210.995 74.856C212.019 74.856 212.731 74.424 213.131 73.56H217.499C217.275 74.44 216.867 75.232 216.275 75.936C215.699 76.64 214.971 77.192 214.091 77.592C213.211 77.992 212.227 78.192 211.139 78.192C209.827 78.192 208.659 77.912 207.635 77.352C206.611 76.792 205.811 75.992 205.235 74.952C204.659 73.912 204.371 72.696 204.371 71.304C204.371 69.912 204.651 68.696 205.211 67.656C205.787 66.616 206.587 65.816 207.611 65.256C208.635 64.696 209.811 64.416 211.139 64.416C212.435 64.416 213.587 64.688 214.595 65.232C215.603 65.776 216.387 66.552 216.947 67.56C217.523 68.568 217.811 69.744 217.811 71.088ZM213.611 70.008C213.611 69.304 213.371 68.744 212.891 68.328C212.411 67.912 211.811 67.704 211.091 67.704C210.403 67.704 209.819 67.904 209.339 68.304C208.875 68.704 208.587 69.272 208.475 70.008H213.611ZM224.08 66.84C224.56 66.104 225.16 65.528 225.88 65.112C226.6 64.68 227.4 64.464 228.28 64.464V68.808H227.152C226.128 68.808 225.36 69.032 224.848 69.48C224.336 69.912 224.08 70.68 224.08 71.784V78H219.976V64.608H224.08V66.84Z" fill="black"/>
</svg>
