<svg width="414" height="442" viewBox="0 0 414 442" fill="none" xmlns="http://www.w3.org/2000/svg">
<path d="M62.6401 29.5C60.1547 31.0171 58.1008 33.1473 56.6754 35.6864C55.25 38.2254 54.5009 41.0882 54.5 44V46.5H56.5V44C56.504 40.693 57.5989 37.4797 59.6147 34.8582C61.6306 32.2366 64.4549 30.3533 67.6499 29.5H62.6401ZM308.18 27H71.5C66.9929 27.0053 62.672 28.798 59.485 31.985C56.298 35.172 54.5053 39.4929 54.5 44V228.5V393C54.5064 397.507 56.2995 401.827 59.4862 405.014C62.673 408.201 66.9933 409.994 71.5 410H334.5C339.007 409.994 343.327 408.201 346.514 405.014C349.701 401.827 351.494 397.507 351.5 393V228.5V65.68L308.18 27ZM349.5 393C349.495 396.977 347.913 400.789 345.101 403.601C342.289 406.413 338.477 407.995 334.5 408H71.5C67.5232 407.995 63.7107 406.413 60.8987 403.601C58.0867 400.789 56.5048 396.977 56.5 393L56.5 228.5L56.5 44C56.504 40.693 57.5989 37.4797 59.6147 34.8582C61.6306 32.2366 64.4549 30.3533 67.6499 29.5C68.9058 29.1654 70.2002 28.9973 71.5 29H307.42L349.5 66.57V228.5V393ZM62.6401 29.5C60.1547 31.0171 58.1008 33.1473 56.6754 35.6864C55.25 38.2254 54.5009 41.0882 54.5 44V46.5H56.5V44C56.504 40.693 57.5989 37.4797 59.6147 34.8582C61.6306 32.2366 64.4549 30.3533 67.6499 29.5H62.6401Z" fill="#3F3D56"/>
<path d="M350.5 67H323.5C318.993 66.9949 314.672 65.2022 311.485 62.0152C308.298 58.8282 306.505 54.5071 306.5 50V28C306.5 27.7348 306.605 27.4804 306.793 27.2929C306.98 27.1054 307.235 27 307.5 27C307.765 27 308.02 27.1054 308.207 27.2929C308.395 27.4804 308.5 27.7348 308.5 28V50C308.504 53.9769 310.086 57.7896 312.898 60.6017C315.71 63.4137 319.523 64.9955 323.5 65H350.5C350.765 65 351.02 65.1054 351.207 65.2929C351.395 65.4804 351.5 65.7348 351.5 66C351.5 66.2652 351.395 66.5196 351.207 66.7071C351.02 66.8947 350.765 67 350.5 67Z" fill="#3F3D56"/>
<path d="M317.041 133.5H89.0414C86.9196 133.5 84.8848 132.657 83.3845 131.157C81.8842 129.657 81.0414 127.622 81.0414 125.5C81.0414 123.378 81.8842 121.343 83.3845 119.843C84.8848 118.343 86.9196 117.5 89.0414 117.5H317.041C319.163 117.5 321.198 118.343 322.698 119.843C324.199 121.343 325.041 123.378 325.041 125.5C325.041 127.622 324.199 129.657 322.698 131.157C321.198 132.657 319.163 133.5 317.041 133.5Z" fill="#CCCCCC"/>
<path d="M202.041 99.5H89.0414C86.9196 99.5 84.8848 98.6572 83.3845 97.1569C81.8842 95.6566 81.0414 93.6217 81.0414 91.5C81.0414 89.3783 81.8842 87.3435 83.3845 85.8432C84.8848 84.3429 86.9196 83.5 89.0414 83.5H202.041C204.163 83.5 206.198 84.3429 207.698 85.8432C209.199 87.3435 210.041 89.3783 210.041 91.5C210.041 93.6217 209.199 95.6566 207.698 97.1569C206.198 98.6572 204.163 99.5 202.041 99.5Z" fill="#CCCCCC"/>
<path d="M317.041 200.5H89.0414C86.9196 200.5 84.8848 199.657 83.3845 198.157C81.8842 196.657 81.0414 194.622 81.0414 192.5C81.0414 190.378 81.8842 188.343 83.3845 186.843C84.8848 185.343 86.9196 184.5 89.0414 184.5H317.041C319.163 184.5 321.198 185.343 322.698 186.843C324.199 188.343 325.041 190.378 325.041 192.5C325.041 194.622 324.199 196.657 322.698 198.157C321.198 199.657 319.163 200.5 317.041 200.5Z" fill="#CCCCCC"/>
<path d="M202.041 166.5H89.0414C86.9196 166.5 84.8848 165.657 83.3845 164.157C81.8842 162.657 81.0414 160.622 81.0414 158.5C81.0414 156.378 81.8842 154.343 83.3845 152.843C84.8848 151.343 86.9196 150.5 89.0414 150.5H202.041C204.163 150.5 206.198 151.343 207.698 152.843C209.199 154.343 210.041 156.378 210.041 158.5C210.041 160.622 209.199 162.657 207.698 164.157C206.198 165.657 204.163 166.5 202.041 166.5Z" fill="#CCCCCC"/>
<rect x="28" y="223.5" width="358" height="191" fill="white"/>
</svg>
