<svg width="202" height="140" viewBox="0 0 202 140" fill="none" xmlns="http://www.w3.org/2000/svg">
<circle cx="70" cy="70" r="69" stroke="black" stroke-width="2"/>
<path d="M12.9434 78.168C11.7114 78.168 10.6074 77.968 9.63138 77.568C8.65538 77.168 7.87138 76.576 7.27938 75.792C6.70338 75.008 6.39938 74.064 6.36738 72.96H10.7354C10.7994 73.584 11.0154 74.064 11.3834 74.4C11.7514 74.72 12.2314 74.88 12.8234 74.88C13.4314 74.88 13.9114 74.744 14.2634 74.472C14.6154 74.184 14.7914 73.792 14.7914 73.296C14.7914 72.88 14.6474 72.536 14.3594 72.264C14.0874 71.992 13.7434 71.768 13.3274 71.592C12.9274 71.416 12.3514 71.216 11.5994 70.992C10.5114 70.656 9.62338 70.32 8.93538 69.984C8.24738 69.648 7.65538 69.152 7.15938 68.496C6.66338 67.84 6.41538 66.984 6.41538 65.928C6.41538 64.36 6.98338 63.136 8.11938 62.256C9.25538 61.36 10.7354 60.912 12.5594 60.912C14.4154 60.912 15.9114 61.36 17.0474 62.256C18.1834 63.136 18.7914 64.368 18.8714 65.952H14.4314C14.3994 65.408 14.1994 64.984 13.8314 64.68C13.4634 64.36 12.9914 64.2 12.4154 64.2C11.9194 64.2 11.5194 64.336 11.2154 64.608C10.9114 64.864 10.7594 65.24 10.7594 65.736C10.7594 66.28 11.0154 66.704 11.5274 67.008C12.0394 67.312 12.8394 67.64 13.9274 67.992C15.0154 68.36 15.8954 68.712 16.5674 69.048C17.2554 69.384 17.8474 69.872 18.3434 70.512C18.8394 71.152 19.0874 71.976 19.0874 72.984C19.0874 73.944 18.8394 74.816 18.3434 75.6C17.8634 76.384 17.1594 77.008 16.2314 77.472C15.3034 77.936 14.2074 78.168 12.9434 78.168ZM34.237 71.088C34.237 71.472 34.213 71.872 34.165 72.288H24.877C24.941 73.12 25.205 73.76 25.669 74.208C26.149 74.64 26.733 74.856 27.421 74.856C28.445 74.856 29.157 74.424 29.557 73.56H33.925C33.701 74.44 33.293 75.232 32.701 75.936C32.125 76.64 31.397 77.192 30.517 77.592C29.637 77.992 28.653 78.192 27.565 78.192C26.253 78.192 25.085 77.912 24.061 77.352C23.037 76.792 22.237 75.992 21.661 74.952C21.085 73.912 20.797 72.696 20.797 71.304C20.797 69.912 21.077 68.696 21.637 67.656C22.213 66.616 23.013 65.816 24.037 65.256C25.061 64.696 26.237 64.416 27.565 64.416C28.861 64.416 30.013 64.688 31.021 65.232C32.029 65.776 32.813 66.552 33.373 67.56C33.949 68.568 34.237 69.744 34.237 71.088ZM30.037 70.008C30.037 69.304 29.797 68.744 29.317 68.328C28.837 67.912 28.237 67.704 27.517 67.704C26.829 67.704 26.245 67.904 25.765 68.304C25.301 68.704 25.013 69.272 24.901 70.008H30.037ZM40.5061 60.24V78H36.4021V60.24H40.5061ZM50.2002 68.016H47.9922V78H43.8882V68.016H42.4002V64.608H43.8882V64.224C43.8882 62.576 44.3602 61.328 45.3042 60.48C46.2482 59.616 47.6322 59.184 49.4562 59.184C49.7602 59.184 49.9842 59.192 50.1282 59.208V62.688C49.3442 62.64 48.7922 62.752 48.4722 63.024C48.1522 63.296 47.9922 63.784 47.9922 64.488V64.608H50.2002V68.016Z" fill="black"/>
<circle cx="122" cy="70" r="69" stroke="black" stroke-width="2"/>
<path d="M141.534 78.168C139.95 78.168 138.494 77.8 137.166 77.064C135.854 76.328 134.806 75.304 134.022 73.992C133.254 72.664 132.87 71.176 132.87 69.528C132.87 67.88 133.254 66.4 134.022 65.088C134.806 63.776 135.854 62.752 137.166 62.016C138.494 61.28 139.95 60.912 141.534 60.912C143.118 60.912 144.566 61.28 145.878 62.016C147.206 62.752 148.246 63.776 148.998 65.088C149.766 66.4 150.15 67.88 150.15 69.528C150.15 71.176 149.766 72.664 148.998 73.992C148.23 75.304 147.19 76.328 145.878 77.064C144.566 77.8 143.118 78.168 141.534 78.168ZM141.534 74.424C142.878 74.424 143.95 73.976 144.75 73.08C145.566 72.184 145.974 71 145.974 69.528C145.974 68.04 145.566 66.856 144.75 65.976C143.95 65.08 142.878 64.632 141.534 64.632C140.174 64.632 139.086 65.072 138.27 65.952C137.47 66.832 137.07 68.024 137.07 69.528C137.07 71.016 137.47 72.208 138.27 73.104C139.086 73.984 140.174 74.424 141.534 74.424ZM159.897 74.52V78H157.809C156.321 78 155.161 77.64 154.329 76.92C153.497 76.184 153.081 74.992 153.081 73.344V68.016H151.449V64.608H153.081V61.344H157.185V64.608H159.873V68.016H157.185V73.392C157.185 73.792 157.281 74.08 157.473 74.256C157.665 74.432 157.985 74.52 158.433 74.52H159.897ZM170.415 64.464C171.951 64.464 173.183 64.976 174.111 66C175.039 67.008 175.503 68.4 175.503 70.176V78H171.423V70.728C171.423 69.832 171.191 69.136 170.727 68.64C170.263 68.144 169.639 67.896 168.855 67.896C168.071 67.896 167.447 68.144 166.983 68.64C166.519 69.136 166.287 69.832 166.287 70.728V78H162.183V60.24H166.287V66.408C166.703 65.816 167.271 65.344 167.991 64.992C168.711 64.64 169.519 64.464 170.415 64.464ZM190.979 71.088C190.979 71.472 190.955 71.872 190.907 72.288H181.619C181.683 73.12 181.947 73.76 182.411 74.208C182.891 74.64 183.475 74.856 184.163 74.856C185.187 74.856 185.899 74.424 186.299 73.56H190.667C190.443 74.44 190.035 75.232 189.443 75.936C188.867 76.64 188.139 77.192 187.259 77.592C186.379 77.992 185.395 78.192 184.307 78.192C182.995 78.192 181.827 77.912 180.803 77.352C179.779 76.792 178.979 75.992 178.403 74.952C177.827 73.912 177.539 72.696 177.539 71.304C177.539 69.912 177.819 68.696 178.379 67.656C178.955 66.616 179.755 65.816 180.779 65.256C181.803 64.696 182.979 64.416 184.307 64.416C185.603 64.416 186.755 64.688 187.763 65.232C188.771 65.776 189.555 66.552 190.115 67.56C190.691 68.568 190.979 69.744 190.979 71.088ZM186.779 70.008C186.779 69.304 186.539 68.744 186.059 68.328C185.579 67.912 184.979 67.704 184.259 67.704C183.571 67.704 182.987 67.904 182.507 68.304C182.043 68.704 181.755 69.272 181.643 70.008H186.779ZM197.248 66.84C197.728 66.104 198.328 65.528 199.048 65.112C199.768 64.68 200.568 64.464 201.448 64.464V68.808H200.32C199.296 68.808 198.528 69.032 198.016 69.48C197.504 69.912 197.248 70.68 197.248 71.784V78H193.144V64.608H197.248V66.84Z" fill="black"/>
</svg>
