<svg width="206" height="140" viewBox="0 0 206 140" fill="none" xmlns="http://www.w3.org/2000/svg">
<circle cx="70" cy="70" r="69" stroke="black" stroke-width="2"/>
<path d="M16.1587 61.152L10.3267 72.432V78H6.22266V72.432L0.390656 61.152H5.04666L8.31066 68.208L11.5507 61.152H16.1587ZM23.9082 78.192C22.5962 78.192 21.4122 77.912 20.3562 77.352C19.3162 76.792 18.4922 75.992 17.8842 74.952C17.2922 73.912 16.9962 72.696 16.9962 71.304C16.9962 69.928 17.3002 68.72 17.9082 67.68C18.5162 66.624 19.3482 65.816 20.4042 65.256C21.4602 64.696 22.6442 64.416 23.9562 64.416C25.2682 64.416 26.4522 64.696 27.5082 65.256C28.5642 65.816 29.3962 66.624 30.0042 67.68C30.6122 68.72 30.9162 69.928 30.9162 71.304C30.9162 72.68 30.6042 73.896 29.9802 74.952C29.3722 75.992 28.5322 76.792 27.4602 77.352C26.4042 77.912 25.2202 78.192 23.9082 78.192ZM23.9082 74.64C24.6922 74.64 25.3562 74.352 25.9002 73.776C26.4602 73.2 26.7402 72.376 26.7402 71.304C26.7402 70.232 26.4682 69.408 25.9242 68.832C25.3962 68.256 24.7402 67.968 23.9562 67.968C23.1562 67.968 22.4922 68.256 21.9642 68.832C21.4362 69.392 21.1722 70.216 21.1722 71.304C21.1722 72.376 21.4282 73.2 21.9402 73.776C22.4682 74.352 23.1242 74.64 23.9082 74.64ZM46.3175 64.608V78H42.2135V76.176C41.7975 76.768 41.2295 77.248 40.5095 77.616C39.8055 77.968 39.0215 78.144 38.1575 78.144C37.1335 78.144 36.2295 77.92 35.4455 77.472C34.6615 77.008 34.0535 76.344 33.6215 75.48C33.1895 74.616 32.9735 73.6 32.9735 72.432V64.608H37.0535V71.88C37.0535 72.776 37.2855 73.472 37.7495 73.968C38.2135 74.464 38.8375 74.712 39.6215 74.712C40.4215 74.712 41.0535 74.464 41.5175 73.968C41.9815 73.472 42.2135 72.776 42.2135 71.88V64.608H46.3175Z" fill="black"/>
<circle cx="117" cy="70" r="69" stroke="black" stroke-width="2"/>
<path d="M127.574 66.576C127.574 67.552 127.35 68.448 126.902 69.264C126.454 70.064 125.766 70.712 124.838 71.208C123.91 71.704 122.758 71.952 121.382 71.952H118.838V78H114.734V61.152H121.382C122.726 61.152 123.862 61.384 124.79 61.848C125.718 62.312 126.414 62.952 126.878 63.768C127.342 64.584 127.574 65.52 127.574 66.576ZM121.07 68.688C121.854 68.688 122.438 68.504 122.822 68.136C123.206 67.768 123.398 67.248 123.398 66.576C123.398 65.904 123.206 65.384 122.822 65.016C122.438 64.648 121.854 64.464 121.07 64.464H118.838V68.688H121.07ZM128.895 71.28C128.895 69.904 129.151 68.696 129.663 67.656C130.191 66.616 130.903 65.816 131.799 65.256C132.695 64.696 133.695 64.416 134.799 64.416C135.743 64.416 136.567 64.608 137.271 64.992C137.991 65.376 138.543 65.88 138.927 66.504V64.608H143.031V78H138.927V76.104C138.527 76.728 137.967 77.232 137.247 77.616C136.543 78 135.719 78.192 134.775 78.192C133.687 78.192 132.695 77.912 131.799 77.352C130.903 76.776 130.191 75.968 129.663 74.928C129.151 73.872 128.895 72.656 128.895 71.28ZM138.927 71.304C138.927 70.28 138.639 69.472 138.063 68.88C137.503 68.288 136.815 67.992 135.999 67.992C135.183 67.992 134.487 68.288 133.911 68.88C133.351 69.456 133.071 70.256 133.071 71.28C133.071 72.304 133.351 73.12 133.911 73.728C134.487 74.32 135.183 74.616 135.999 74.616C136.815 74.616 137.503 74.32 138.063 73.728C138.639 73.136 138.927 72.328 138.927 71.304ZM150.104 66.84C150.584 66.104 151.184 65.528 151.904 65.112C152.624 64.68 153.424 64.464 154.304 64.464V68.808H153.176C152.152 68.808 151.384 69.032 150.872 69.48C150.36 69.912 150.104 70.68 150.104 71.784V78H146V64.608H150.104V66.84ZM163.729 74.52V78H161.641C160.153 78 158.993 77.64 158.161 76.92C157.329 76.184 156.913 74.992 156.913 73.344V68.016H155.281V64.608H156.913V61.344H161.017V64.608H163.705V68.016H161.017V73.392C161.017 73.792 161.113 74.08 161.305 74.256C161.497 74.432 161.817 74.52 162.265 74.52H163.729ZM174.175 64.464C175.743 64.464 176.991 64.976 177.919 66C178.863 67.008 179.335 68.4 179.335 70.176V78H175.255V70.728C175.255 69.832 175.023 69.136 174.559 68.64C174.095 68.144 173.471 67.896 172.687 67.896C171.903 67.896 171.279 68.144 170.815 68.64C170.351 69.136 170.119 69.832 170.119 70.728V78H166.015V64.608H170.119V66.384C170.535 65.792 171.095 65.328 171.799 64.992C172.503 64.64 173.295 64.464 174.175 64.464ZM194.811 71.088C194.811 71.472 194.787 71.872 194.739 72.288H185.451C185.515 73.12 185.779 73.76 186.243 74.208C186.723 74.64 187.307 74.856 187.995 74.856C189.019 74.856 189.731 74.424 190.131 73.56H194.499C194.275 74.44 193.867 75.232 193.275 75.936C192.699 76.64 191.971 77.192 191.091 77.592C190.211 77.992 189.227 78.192 188.139 78.192C186.827 78.192 185.659 77.912 184.635 77.352C183.611 76.792 182.811 75.992 182.235 74.952C181.659 73.912 181.371 72.696 181.371 71.304C181.371 69.912 181.651 68.696 182.211 67.656C182.787 66.616 183.587 65.816 184.611 65.256C185.635 64.696 186.811 64.416 188.139 64.416C189.435 64.416 190.587 64.688 191.595 65.232C192.603 65.776 193.387 66.552 193.947 67.56C194.523 68.568 194.811 69.744 194.811 71.088ZM190.611 70.008C190.611 69.304 190.371 68.744 189.891 68.328C189.411 67.912 188.811 67.704 188.091 67.704C187.403 67.704 186.819 67.904 186.339 68.304C185.875 68.704 185.587 69.272 185.475 70.008H190.611ZM201.08 66.84C201.56 66.104 202.16 65.528 202.88 65.112C203.6 64.68 204.4 64.464 205.28 64.464V68.808H204.152C203.128 68.808 202.36 69.032 201.848 69.48C201.336 69.912 201.08 70.68 201.08 71.784V78H196.976V64.608H201.08V66.84Z" fill="black"/>
</svg>
