<svg width="192" height="140" viewBox="0 0 192 140" fill="none" xmlns="http://www.w3.org/2000/svg">
<circle cx="70" cy="70" r="69" stroke="black" stroke-width="2"/>
<path d="M20.1587 61.152L14.3267 72.432V78H10.2227V72.432L4.39066 61.152H9.04666L12.3107 68.208L15.5507 61.152H20.1587ZM27.9082 78.192C26.5962 78.192 25.4122 77.912 24.3562 77.352C23.3162 76.792 22.4922 75.992 21.8842 74.952C21.2922 73.912 20.9962 72.696 20.9962 71.304C20.9962 69.928 21.3002 68.72 21.9082 67.68C22.5162 66.624 23.3482 65.816 24.4042 65.256C25.4602 64.696 26.6442 64.416 27.9562 64.416C29.2682 64.416 30.4522 64.696 31.5082 65.256C32.5642 65.816 33.3962 66.624 34.0042 67.68C34.6122 68.72 34.9162 69.928 34.9162 71.304C34.9162 72.68 34.6042 73.896 33.9802 74.952C33.3722 75.992 32.5322 76.792 31.4602 77.352C30.4042 77.912 29.2202 78.192 27.9082 78.192ZM27.9082 74.64C28.6922 74.64 29.3562 74.352 29.9002 73.776C30.4602 73.2 30.7402 72.376 30.7402 71.304C30.7402 70.232 30.4682 69.408 29.9242 68.832C29.3962 68.256 28.7402 67.968 27.9562 67.968C27.1562 67.968 26.4922 68.256 25.9642 68.832C25.4362 69.392 25.1722 70.216 25.1722 71.304C25.1722 72.376 25.4282 73.2 25.9402 73.776C26.4682 74.352 27.1242 74.64 27.9082 74.64ZM50.3175 64.608V78H46.2135V76.176C45.7975 76.768 45.2295 77.248 44.5095 77.616C43.8055 77.968 43.0215 78.144 42.1575 78.144C41.1335 78.144 40.2295 77.92 39.4455 77.472C38.6615 77.008 38.0535 76.344 37.6215 75.48C37.1895 74.616 36.9735 73.6 36.9735 72.432V64.608H41.0535V71.88C41.0535 72.776 41.2855 73.472 41.7495 73.968C42.2135 74.464 42.8375 74.712 43.6215 74.712C44.4215 74.712 45.0535 74.464 45.5175 73.968C45.9815 73.472 46.2135 72.776 46.2135 71.88V64.608H50.3175Z" fill="black"/>
<circle cx="122" cy="70" r="69" stroke="black" stroke-width="2"/>
<path d="M167.089 75.024H160.801L159.793 78H155.497L161.593 61.152H166.345L172.441 78H168.097L167.089 75.024ZM166.033 71.856L163.945 65.688L161.881 71.856H166.033ZM178.401 61.152V78H174.297V61.152H178.401Z" fill="black"/>
</svg>
