<svg width="238" height="140" viewBox="0 0 238 140" fill="none" xmlns="http://www.w3.org/2000/svg">
<circle cx="70" cy="70" r="69" stroke="black" stroke-width="2"/>
<path d="M45.9434 78.168C44.7114 78.168 43.6074 77.968 42.6314 77.568C41.6554 77.168 40.8714 76.576 40.2794 75.792C39.7034 75.008 39.3994 74.064 39.3674 72.96H43.7354C43.7994 73.584 44.0154 74.064 44.3834 74.4C44.7514 74.72 45.2314 74.88 45.8234 74.88C46.4314 74.88 46.9114 74.744 47.2634 74.472C47.6154 74.184 47.7914 73.792 47.7914 73.296C47.7914 72.88 47.6474 72.536 47.3594 72.264C47.0874 71.992 46.7434 71.768 46.3274 71.592C45.9274 71.416 45.3514 71.216 44.5994 70.992C43.5114 70.656 42.6234 70.32 41.9354 69.984C41.2474 69.648 40.6554 69.152 40.1594 68.496C39.6634 67.84 39.4154 66.984 39.4154 65.928C39.4154 64.36 39.9834 63.136 41.1194 62.256C42.2554 61.36 43.7354 60.912 45.5594 60.912C47.4154 60.912 48.9114 61.36 50.0474 62.256C51.1834 63.136 51.7914 64.368 51.8714 65.952H47.4314C47.3994 65.408 47.1994 64.984 46.8314 64.68C46.4634 64.36 45.9914 64.2 45.4154 64.2C44.9194 64.2 44.5194 64.336 44.2154 64.608C43.9114 64.864 43.7594 65.24 43.7594 65.736C43.7594 66.28 44.0154 66.704 44.5274 67.008C45.0394 67.312 45.8394 67.64 46.9274 67.992C48.0154 68.36 48.8954 68.712 49.5674 69.048C50.2554 69.384 50.8474 69.872 51.3434 70.512C51.8394 71.152 52.0874 71.976 52.0874 72.984C52.0874 73.944 51.8394 74.816 51.3434 75.6C50.8634 76.384 50.1594 77.008 49.2314 77.472C48.3034 77.936 47.2074 78.168 45.9434 78.168ZM67.237 71.088C67.237 71.472 67.213 71.872 67.165 72.288H57.877C57.941 73.12 58.205 73.76 58.669 74.208C59.149 74.64 59.733 74.856 60.421 74.856C61.445 74.856 62.157 74.424 62.557 73.56H66.925C66.701 74.44 66.293 75.232 65.701 75.936C65.125 76.64 64.397 77.192 63.517 77.592C62.637 77.992 61.653 78.192 60.565 78.192C59.253 78.192 58.085 77.912 57.061 77.352C56.037 76.792 55.237 75.992 54.661 74.952C54.085 73.912 53.797 72.696 53.797 71.304C53.797 69.912 54.077 68.696 54.637 67.656C55.213 66.616 56.013 65.816 57.037 65.256C58.061 64.696 59.237 64.416 60.565 64.416C61.861 64.416 63.013 64.688 64.021 65.232C65.029 65.776 65.813 66.552 66.373 67.56C66.949 68.568 67.237 69.744 67.237 71.088ZM63.037 70.008C63.037 69.304 62.797 68.744 62.317 68.328C61.837 67.912 61.237 67.704 60.517 67.704C59.829 67.704 59.245 67.904 58.765 68.304C58.301 68.704 58.013 69.272 57.901 70.008H63.037ZM73.5061 60.24V78H69.4021V60.24H73.5061ZM83.2002 68.016H80.9922V78H76.8882V68.016H75.4002V64.608H76.8882V64.224C76.8882 62.576 77.3602 61.328 78.3042 60.48C79.2482 59.616 80.6322 59.184 82.4562 59.184C82.7602 59.184 82.9842 59.192 83.1282 59.208V62.688C82.3442 62.64 81.7922 62.752 81.4722 63.024C81.1522 63.296 80.9922 63.784 80.9922 64.488V64.608H83.2002V68.016Z" fill="black"/>
<circle cx="168" cy="70" r="69" stroke="black" stroke-width="2"/>
<path d="M156.534 78.168C154.95 78.168 153.494 77.8 152.166 77.064C150.854 76.328 149.806 75.304 149.022 73.992C148.254 72.664 147.87 71.176 147.87 69.528C147.87 67.88 148.254 66.4 149.022 65.088C149.806 63.776 150.854 62.752 152.166 62.016C153.494 61.28 154.95 60.912 156.534 60.912C158.118 60.912 159.566 61.28 160.878 62.016C162.206 62.752 163.246 63.776 163.998 65.088C164.766 66.4 165.15 67.88 165.15 69.528C165.15 71.176 164.766 72.664 163.998 73.992C163.23 75.304 162.19 76.328 160.878 77.064C159.566 77.8 158.118 78.168 156.534 78.168ZM156.534 74.424C157.878 74.424 158.95 73.976 159.75 73.08C160.566 72.184 160.974 71 160.974 69.528C160.974 68.04 160.566 66.856 159.75 65.976C158.95 65.08 157.878 64.632 156.534 64.632C155.174 64.632 154.086 65.072 153.27 65.952C152.47 66.832 152.07 68.024 152.07 69.528C152.07 71.016 152.47 72.208 153.27 73.104C154.086 73.984 155.174 74.424 156.534 74.424ZM174.897 74.52V78H172.809C171.321 78 170.161 77.64 169.329 76.92C168.497 76.184 168.081 74.992 168.081 73.344V68.016H166.449V64.608H168.081V61.344H172.185V64.608H174.873V68.016H172.185V73.392C172.185 73.792 172.281 74.08 172.473 74.256C172.665 74.432 172.985 74.52 173.433 74.52H174.897ZM185.415 64.464C186.951 64.464 188.183 64.976 189.111 66C190.039 67.008 190.503 68.4 190.503 70.176V78H186.423V70.728C186.423 69.832 186.191 69.136 185.727 68.64C185.263 68.144 184.639 67.896 183.855 67.896C183.071 67.896 182.447 68.144 181.983 68.64C181.519 69.136 181.287 69.832 181.287 70.728V78H177.183V60.24H181.287V66.408C181.703 65.816 182.271 65.344 182.991 64.992C183.711 64.64 184.519 64.464 185.415 64.464ZM205.979 71.088C205.979 71.472 205.955 71.872 205.907 72.288H196.619C196.683 73.12 196.947 73.76 197.411 74.208C197.891 74.64 198.475 74.856 199.163 74.856C200.187 74.856 200.899 74.424 201.299 73.56H205.667C205.443 74.44 205.035 75.232 204.443 75.936C203.867 76.64 203.139 77.192 202.259 77.592C201.379 77.992 200.395 78.192 199.307 78.192C197.995 78.192 196.827 77.912 195.803 77.352C194.779 76.792 193.979 75.992 193.403 74.952C192.827 73.912 192.539 72.696 192.539 71.304C192.539 69.912 192.819 68.696 193.379 67.656C193.955 66.616 194.755 65.816 195.779 65.256C196.803 64.696 197.979 64.416 199.307 64.416C200.603 64.416 201.755 64.688 202.763 65.232C203.771 65.776 204.555 66.552 205.115 67.56C205.691 68.568 205.979 69.744 205.979 71.088ZM201.779 70.008C201.779 69.304 201.539 68.744 201.059 68.328C200.579 67.912 199.979 67.704 199.259 67.704C198.571 67.704 197.987 67.904 197.507 68.304C197.043 68.704 196.755 69.272 196.643 70.008H201.779ZM212.248 66.84C212.728 66.104 213.328 65.528 214.048 65.112C214.768 64.68 215.568 64.464 216.448 64.464V68.808H215.32C214.296 68.808 213.528 69.032 213.016 69.48C212.504 69.912 212.248 70.68 212.248 71.784V78H208.144V64.608H212.248V66.84Z" fill="black"/>
</svg>
