<svg width="253" height="140" viewBox="0 0 253 140" fill="none" xmlns="http://www.w3.org/2000/svg">
<circle cx="70" cy="70" r="69" stroke="black" stroke-width="2"/>
<path d="M49.9434 78.168C48.7114 78.168 47.6074 77.968 46.6314 77.568C45.6554 77.168 44.8714 76.576 44.2794 75.792C43.7034 75.008 43.3994 74.064 43.3674 72.96H47.7354C47.7994 73.584 48.0154 74.064 48.3834 74.4C48.7514 74.72 49.2314 74.88 49.8234 74.88C50.4314 74.88 50.9114 74.744 51.2634 74.472C51.6154 74.184 51.7914 73.792 51.7914 73.296C51.7914 72.88 51.6474 72.536 51.3594 72.264C51.0874 71.992 50.7434 71.768 50.3274 71.592C49.9274 71.416 49.3514 71.216 48.5994 70.992C47.5114 70.656 46.6234 70.32 45.9354 69.984C45.2474 69.648 44.6554 69.152 44.1594 68.496C43.6634 67.84 43.4154 66.984 43.4154 65.928C43.4154 64.36 43.9834 63.136 45.1194 62.256C46.2554 61.36 47.7354 60.912 49.5594 60.912C51.4154 60.912 52.9114 61.36 54.0474 62.256C55.1834 63.136 55.7914 64.368 55.8714 65.952H51.4314C51.3994 65.408 51.1994 64.984 50.8314 64.68C50.4634 64.36 49.9914 64.2 49.4154 64.2C48.9194 64.2 48.5194 64.336 48.2154 64.608C47.9114 64.864 47.7594 65.24 47.7594 65.736C47.7594 66.28 48.0154 66.704 48.5274 67.008C49.0394 67.312 49.8394 67.64 50.9274 67.992C52.0154 68.36 52.8954 68.712 53.5674 69.048C54.2554 69.384 54.8474 69.872 55.3434 70.512C55.8394 71.152 56.0874 71.976 56.0874 72.984C56.0874 73.944 55.8394 74.816 55.3434 75.6C54.8634 76.384 54.1594 77.008 53.2314 77.472C52.3034 77.936 51.2074 78.168 49.9434 78.168ZM71.237 71.088C71.237 71.472 71.213 71.872 71.165 72.288H61.877C61.941 73.12 62.205 73.76 62.669 74.208C63.149 74.64 63.733 74.856 64.421 74.856C65.445 74.856 66.157 74.424 66.557 73.56H70.925C70.701 74.44 70.293 75.232 69.701 75.936C69.125 76.64 68.397 77.192 67.517 77.592C66.637 77.992 65.653 78.192 64.565 78.192C63.253 78.192 62.085 77.912 61.061 77.352C60.037 76.792 59.237 75.992 58.661 74.952C58.085 73.912 57.797 72.696 57.797 71.304C57.797 69.912 58.077 68.696 58.637 67.656C59.213 66.616 60.013 65.816 61.037 65.256C62.061 64.696 63.237 64.416 64.565 64.416C65.861 64.416 67.013 64.688 68.021 65.232C69.029 65.776 69.813 66.552 70.373 67.56C70.949 68.568 71.237 69.744 71.237 71.088ZM67.037 70.008C67.037 69.304 66.797 68.744 66.317 68.328C65.837 67.912 65.237 67.704 64.517 67.704C63.829 67.704 63.245 67.904 62.765 68.304C62.301 68.704 62.013 69.272 61.901 70.008H67.037ZM77.5061 60.24V78H73.4021V60.24H77.5061ZM87.2002 68.016H84.9922V78H80.8882V68.016H79.4002V64.608H80.8882V64.224C80.8882 62.576 81.3602 61.328 82.3042 60.48C83.2482 59.616 84.6322 59.184 86.4562 59.184C86.7602 59.184 86.9842 59.192 87.1282 59.208V62.688C86.3442 62.64 85.7922 62.752 85.4722 63.024C85.1522 63.296 84.9922 63.784 84.9922 64.488V64.608H87.2002V68.016Z" fill="black"/>
<circle cx="183" cy="70" r="69" stroke="black" stroke-width="2"/>
<path d="M163.534 78.168C161.95 78.168 160.494 77.8 159.166 77.064C157.854 76.328 156.806 75.304 156.022 73.992C155.254 72.664 154.87 71.176 154.87 69.528C154.87 67.88 155.254 66.4 156.022 65.088C156.806 63.776 157.854 62.752 159.166 62.016C160.494 61.28 161.95 60.912 163.534 60.912C165.118 60.912 166.566 61.28 167.878 62.016C169.206 62.752 170.246 63.776 170.998 65.088C171.766 66.4 172.15 67.88 172.15 69.528C172.15 71.176 171.766 72.664 170.998 73.992C170.23 75.304 169.19 76.328 167.878 77.064C166.566 77.8 165.118 78.168 163.534 78.168ZM163.534 74.424C164.878 74.424 165.95 73.976 166.75 73.08C167.566 72.184 167.974 71 167.974 69.528C167.974 68.04 167.566 66.856 166.75 65.976C165.95 65.08 164.878 64.632 163.534 64.632C162.174 64.632 161.086 65.072 160.27 65.952C159.47 66.832 159.07 68.024 159.07 69.528C159.07 71.016 159.47 72.208 160.27 73.104C161.086 73.984 162.174 74.424 163.534 74.424ZM181.897 74.52V78H179.809C178.321 78 177.161 77.64 176.329 76.92C175.497 76.184 175.081 74.992 175.081 73.344V68.016H173.449V64.608H175.081V61.344H179.185V64.608H181.873V68.016H179.185V73.392C179.185 73.792 179.281 74.08 179.473 74.256C179.665 74.432 179.985 74.52 180.433 74.52H181.897ZM192.415 64.464C193.951 64.464 195.183 64.976 196.111 66C197.039 67.008 197.503 68.4 197.503 70.176V78H193.423V70.728C193.423 69.832 193.191 69.136 192.727 68.64C192.263 68.144 191.639 67.896 190.855 67.896C190.071 67.896 189.447 68.144 188.983 68.64C188.519 69.136 188.287 69.832 188.287 70.728V78H184.183V60.24H188.287V66.408C188.703 65.816 189.271 65.344 189.991 64.992C190.711 64.64 191.519 64.464 192.415 64.464ZM212.979 71.088C212.979 71.472 212.955 71.872 212.907 72.288H203.619C203.683 73.12 203.947 73.76 204.411 74.208C204.891 74.64 205.475 74.856 206.163 74.856C207.187 74.856 207.899 74.424 208.299 73.56H212.667C212.443 74.44 212.035 75.232 211.443 75.936C210.867 76.64 210.139 77.192 209.259 77.592C208.379 77.992 207.395 78.192 206.307 78.192C204.995 78.192 203.827 77.912 202.803 77.352C201.779 76.792 200.979 75.992 200.403 74.952C199.827 73.912 199.539 72.696 199.539 71.304C199.539 69.912 199.819 68.696 200.379 67.656C200.955 66.616 201.755 65.816 202.779 65.256C203.803 64.696 204.979 64.416 206.307 64.416C207.603 64.416 208.755 64.688 209.763 65.232C210.771 65.776 211.555 66.552 212.115 67.56C212.691 68.568 212.979 69.744 212.979 71.088ZM208.779 70.008C208.779 69.304 208.539 68.744 208.059 68.328C207.579 67.912 206.979 67.704 206.259 67.704C205.571 67.704 204.987 67.904 204.507 68.304C204.043 68.704 203.755 69.272 203.643 70.008H208.779ZM219.248 66.84C219.728 66.104 220.328 65.528 221.048 65.112C221.768 64.68 222.568 64.464 223.448 64.464V68.808H222.32C221.296 68.808 220.528 69.032 220.016 69.48C219.504 69.912 219.248 70.68 219.248 71.784V78H215.144V64.608H219.248V66.84Z" fill="black"/>
</svg>
