<svg width="280" height="140" viewBox="0 0 280 140" fill="none" xmlns="http://www.w3.org/2000/svg">
<circle cx="70" cy="70" r="69" stroke="black" stroke-width="2"/>
<path d="M62.1587 61.152L56.3267 72.432V78H52.2227V72.432L46.3907 61.152H51.0467L54.3107 68.208L57.5507 61.152H62.1587ZM69.9082 78.192C68.5962 78.192 67.4122 77.912 66.3562 77.352C65.3162 76.792 64.4922 75.992 63.8842 74.952C63.2922 73.912 62.9962 72.696 62.9962 71.304C62.9962 69.928 63.3002 68.72 63.9082 67.68C64.5162 66.624 65.3482 65.816 66.4042 65.256C67.4602 64.696 68.6442 64.416 69.9562 64.416C71.2682 64.416 72.4522 64.696 73.5082 65.256C74.5642 65.816 75.3962 66.624 76.0042 67.68C76.6122 68.72 76.9162 69.928 76.9162 71.304C76.9162 72.68 76.6042 73.896 75.9802 74.952C75.3722 75.992 74.5322 76.792 73.4602 77.352C72.4042 77.912 71.2202 78.192 69.9082 78.192ZM69.9082 74.64C70.6922 74.64 71.3562 74.352 71.9002 73.776C72.4602 73.2 72.7402 72.376 72.7402 71.304C72.7402 70.232 72.4682 69.408 71.9242 68.832C71.3962 68.256 70.7402 67.968 69.9562 67.968C69.1562 67.968 68.4922 68.256 67.9642 68.832C67.4362 69.392 67.1722 70.216 67.1722 71.304C67.1722 72.376 67.4282 73.2 67.9402 73.776C68.4682 74.352 69.1242 74.64 69.9082 74.64ZM92.3175 64.608V78H88.2135V76.176C87.7975 76.768 87.2295 77.248 86.5095 77.616C85.8055 77.968 85.0215 78.144 84.1575 78.144C83.1335 78.144 82.2295 77.92 81.4455 77.472C80.6615 77.008 80.0535 76.344 79.6215 75.48C79.1895 74.616 78.9735 73.6 78.9735 72.432V64.608H83.0535V71.88C83.0535 72.776 83.2855 73.472 83.7495 73.968C84.2135 74.464 84.8375 74.712 85.6215 74.712C86.4215 74.712 87.0535 74.464 87.5175 73.968C87.9815 73.472 88.2135 72.776 88.2135 71.88V64.608H92.3175Z" fill="black"/>
<circle cx="210" cy="70" r="69" stroke="black" stroke-width="2"/>
<path d="M210.089 75.024H203.801L202.793 78H198.497L204.593 61.152H209.345L215.441 78H211.097L210.089 75.024ZM209.033 71.856L206.945 65.688L204.881 71.856H209.033ZM221.401 61.152V78H217.297V61.152H221.401Z" fill="black"/>
</svg>
