<svg width="238" height="140" viewBox="0 0 238 140" fill="none" xmlns="http://www.w3.org/2000/svg">
<circle cx="70" cy="70" r="69" stroke="black" stroke-width="2"/>
<path d="M53.1587 61.152L47.3267 72.432V78H43.2227V72.432L37.3907 61.152H42.0467L45.3107 68.208L48.5507 61.152H53.1587ZM60.9082 78.192C59.5962 78.192 58.4122 77.912 57.3562 77.352C56.3162 76.792 55.4922 75.992 54.8842 74.952C54.2922 73.912 53.9962 72.696 53.9962 71.304C53.9962 69.928 54.3002 68.72 54.9082 67.68C55.5162 66.624 56.3482 65.816 57.4042 65.256C58.4602 64.696 59.6442 64.416 60.9562 64.416C62.2682 64.416 63.4522 64.696 64.5082 65.256C65.5642 65.816 66.3962 66.624 67.0042 67.68C67.6122 68.72 67.9162 69.928 67.9162 71.304C67.9162 72.68 67.6042 73.896 66.9802 74.952C66.3722 75.992 65.5322 76.792 64.4602 77.352C63.4042 77.912 62.2202 78.192 60.9082 78.192ZM60.9082 74.64C61.6922 74.64 62.3562 74.352 62.9002 73.776C63.4602 73.2 63.7402 72.376 63.7402 71.304C63.7402 70.232 63.4682 69.408 62.9242 68.832C62.3962 68.256 61.7402 67.968 60.9562 67.968C60.1562 67.968 59.4922 68.256 58.9642 68.832C58.4362 69.392 58.1722 70.216 58.1722 71.304C58.1722 72.376 58.4282 73.2 58.9402 73.776C59.4682 74.352 60.1242 74.64 60.9082 74.64ZM83.3175 64.608V78H79.2135V76.176C78.7975 76.768 78.2295 77.248 77.5095 77.616C76.8055 77.968 76.0215 78.144 75.1575 78.144C74.1335 78.144 73.2295 77.92 72.4455 77.472C71.6615 77.008 71.0535 76.344 70.6215 75.48C70.1895 74.616 69.9735 73.6 69.9735 72.432V64.608H74.0535V71.88C74.0535 72.776 74.2855 73.472 74.7495 73.968C75.2135 74.464 75.8375 74.712 76.6215 74.712C77.4215 74.712 78.0535 74.464 78.5175 73.968C78.9815 73.472 79.2135 72.776 79.2135 71.88V64.608H83.3175Z" fill="black"/>
<circle cx="168" cy="70" r="69" stroke="black" stroke-width="2"/>
<path d="M182.089 75.024H175.801L174.793 78H170.497L176.593 61.152H181.345L187.441 78H183.097L182.089 75.024ZM181.033 71.856L178.945 65.688L176.881 71.856H181.033ZM193.401 61.152V78H189.297V61.152H193.401Z" fill="black"/>
</svg>
