<svg width="222" height="140" viewBox="0 0 222 140" fill="none" xmlns="http://www.w3.org/2000/svg">
<circle cx="70" cy="70" r="69" stroke="black" stroke-width="2"/>
<path d="M31.9434 78.168C30.7114 78.168 29.6074 77.968 28.6314 77.568C27.6554 77.168 26.8714 76.576 26.2794 75.792C25.7034 75.008 25.3994 74.064 25.3674 72.96H29.7354C29.7994 73.584 30.0154 74.064 30.3834 74.4C30.7514 74.72 31.2314 74.88 31.8234 74.88C32.4314 74.88 32.9114 74.744 33.2634 74.472C33.6154 74.184 33.7914 73.792 33.7914 73.296C33.7914 72.88 33.6474 72.536 33.3594 72.264C33.0874 71.992 32.7434 71.768 32.3274 71.592C31.9274 71.416 31.3514 71.216 30.5994 70.992C29.5114 70.656 28.6234 70.32 27.9354 69.984C27.2474 69.648 26.6554 69.152 26.1594 68.496C25.6634 67.84 25.4154 66.984 25.4154 65.928C25.4154 64.36 25.9834 63.136 27.1194 62.256C28.2554 61.36 29.7354 60.912 31.5594 60.912C33.4154 60.912 34.9114 61.36 36.0474 62.256C37.1834 63.136 37.7914 64.368 37.8714 65.952H33.4314C33.3994 65.408 33.1994 64.984 32.8314 64.68C32.4634 64.36 31.9914 64.2 31.4154 64.2C30.9194 64.2 30.5194 64.336 30.2154 64.608C29.9114 64.864 29.7594 65.24 29.7594 65.736C29.7594 66.28 30.0154 66.704 30.5274 67.008C31.0394 67.312 31.8394 67.64 32.9274 67.992C34.0154 68.36 34.8954 68.712 35.5674 69.048C36.2554 69.384 36.8474 69.872 37.3434 70.512C37.8394 71.152 38.0874 71.976 38.0874 72.984C38.0874 73.944 37.8394 74.816 37.3434 75.6C36.8634 76.384 36.1594 77.008 35.2314 77.472C34.3034 77.936 33.2074 78.168 31.9434 78.168ZM53.237 71.088C53.237 71.472 53.213 71.872 53.165 72.288H43.877C43.941 73.12 44.205 73.76 44.669 74.208C45.149 74.64 45.733 74.856 46.421 74.856C47.445 74.856 48.157 74.424 48.557 73.56H52.925C52.701 74.44 52.293 75.232 51.701 75.936C51.125 76.64 50.397 77.192 49.517 77.592C48.637 77.992 47.653 78.192 46.565 78.192C45.253 78.192 44.085 77.912 43.061 77.352C42.037 76.792 41.237 75.992 40.661 74.952C40.085 73.912 39.797 72.696 39.797 71.304C39.797 69.912 40.077 68.696 40.637 67.656C41.213 66.616 42.013 65.816 43.037 65.256C44.061 64.696 45.237 64.416 46.565 64.416C47.861 64.416 49.013 64.688 50.021 65.232C51.029 65.776 51.813 66.552 52.373 67.56C52.949 68.568 53.237 69.744 53.237 71.088ZM49.037 70.008C49.037 69.304 48.797 68.744 48.317 68.328C47.837 67.912 47.237 67.704 46.517 67.704C45.829 67.704 45.245 67.904 44.765 68.304C44.301 68.704 44.013 69.272 43.901 70.008H49.037ZM59.5061 60.24V78H55.4021V60.24H59.5061ZM69.2002 68.016H66.9922V78H62.8882V68.016H61.4002V64.608H62.8882V64.224C62.8882 62.576 63.3602 61.328 64.3042 60.48C65.2482 59.616 66.6322 59.184 68.4562 59.184C68.7602 59.184 68.9842 59.192 69.1282 59.208V62.688C68.3442 62.64 67.7922 62.752 67.4722 63.024C67.1522 63.296 66.9922 63.784 66.9922 64.488V64.608H69.2002V68.016Z" fill="black"/>
<circle cx="152" cy="70" r="69" stroke="black" stroke-width="2"/>
<path d="M154.534 78.168C152.95 78.168 151.494 77.8 150.166 77.064C148.854 76.328 147.806 75.304 147.022 73.992C146.254 72.664 145.87 71.176 145.87 69.528C145.87 67.88 146.254 66.4 147.022 65.088C147.806 63.776 148.854 62.752 150.166 62.016C151.494 61.28 152.95 60.912 154.534 60.912C156.118 60.912 157.566 61.28 158.878 62.016C160.206 62.752 161.246 63.776 161.998 65.088C162.766 66.4 163.15 67.88 163.15 69.528C163.15 71.176 162.766 72.664 161.998 73.992C161.23 75.304 160.19 76.328 158.878 77.064C157.566 77.8 156.118 78.168 154.534 78.168ZM154.534 74.424C155.878 74.424 156.95 73.976 157.75 73.08C158.566 72.184 158.974 71 158.974 69.528C158.974 68.04 158.566 66.856 157.75 65.976C156.95 65.08 155.878 64.632 154.534 64.632C153.174 64.632 152.086 65.072 151.27 65.952C150.47 66.832 150.07 68.024 150.07 69.528C150.07 71.016 150.47 72.208 151.27 73.104C152.086 73.984 153.174 74.424 154.534 74.424ZM172.897 74.52V78H170.809C169.321 78 168.161 77.64 167.329 76.92C166.497 76.184 166.081 74.992 166.081 73.344V68.016H164.449V64.608H166.081V61.344H170.185V64.608H172.873V68.016H170.185V73.392C170.185 73.792 170.281 74.08 170.473 74.256C170.665 74.432 170.985 74.52 171.433 74.52H172.897ZM183.415 64.464C184.951 64.464 186.183 64.976 187.111 66C188.039 67.008 188.503 68.4 188.503 70.176V78H184.423V70.728C184.423 69.832 184.191 69.136 183.727 68.64C183.263 68.144 182.639 67.896 181.855 67.896C181.071 67.896 180.447 68.144 179.983 68.64C179.519 69.136 179.287 69.832 179.287 70.728V78H175.183V60.24H179.287V66.408C179.703 65.816 180.271 65.344 180.991 64.992C181.711 64.64 182.519 64.464 183.415 64.464ZM203.979 71.088C203.979 71.472 203.955 71.872 203.907 72.288H194.619C194.683 73.12 194.947 73.76 195.411 74.208C195.891 74.64 196.475 74.856 197.163 74.856C198.187 74.856 198.899 74.424 199.299 73.56H203.667C203.443 74.44 203.035 75.232 202.443 75.936C201.867 76.64 201.139 77.192 200.259 77.592C199.379 77.992 198.395 78.192 197.307 78.192C195.995 78.192 194.827 77.912 193.803 77.352C192.779 76.792 191.979 75.992 191.403 74.952C190.827 73.912 190.539 72.696 190.539 71.304C190.539 69.912 190.819 68.696 191.379 67.656C191.955 66.616 192.755 65.816 193.779 65.256C194.803 64.696 195.979 64.416 197.307 64.416C198.603 64.416 199.755 64.688 200.763 65.232C201.771 65.776 202.555 66.552 203.115 67.56C203.691 68.568 203.979 69.744 203.979 71.088ZM199.779 70.008C199.779 69.304 199.539 68.744 199.059 68.328C198.579 67.912 197.979 67.704 197.259 67.704C196.571 67.704 195.987 67.904 195.507 68.304C195.043 68.704 194.755 69.272 194.643 70.008H199.779ZM210.248 66.84C210.728 66.104 211.328 65.528 212.048 65.112C212.768 64.68 213.568 64.464 214.448 64.464V68.808H213.32C212.296 68.808 211.528 69.032 211.016 69.48C210.504 69.912 210.248 70.68 210.248 71.784V78H206.144V64.608H210.248V66.84Z" fill="black"/>
</svg>
