<svg width="222" height="140" viewBox="0 0 222 140" fill="none" xmlns="http://www.w3.org/2000/svg">
<circle cx="70" cy="70" r="69" stroke="black" stroke-width="2"/>
<path d="M39.1587 61.152L33.3267 72.432V78H29.2227V72.432L23.3907 61.152H28.0467L31.3107 68.208L34.5507 61.152H39.1587ZM46.9082 78.192C45.5962 78.192 44.4122 77.912 43.3562 77.352C42.3162 76.792 41.4922 75.992 40.8842 74.952C40.2922 73.912 39.9962 72.696 39.9962 71.304C39.9962 69.928 40.3002 68.72 40.9082 67.68C41.5162 66.624 42.3482 65.816 43.4042 65.256C44.4602 64.696 45.6442 64.416 46.9562 64.416C48.2682 64.416 49.4522 64.696 50.5082 65.256C51.5642 65.816 52.3962 66.624 53.0042 67.68C53.6122 68.72 53.9162 69.928 53.9162 71.304C53.9162 72.68 53.6042 73.896 52.9802 74.952C52.3722 75.992 51.5322 76.792 50.4602 77.352C49.4042 77.912 48.2202 78.192 46.9082 78.192ZM46.9082 74.64C47.6922 74.64 48.3562 74.352 48.9002 73.776C49.4602 73.2 49.7402 72.376 49.7402 71.304C49.7402 70.232 49.4682 69.408 48.9242 68.832C48.3962 68.256 47.7402 67.968 46.9562 67.968C46.1562 67.968 45.4922 68.256 44.9642 68.832C44.4362 69.392 44.1722 70.216 44.1722 71.304C44.1722 72.376 44.4282 73.2 44.9402 73.776C45.4682 74.352 46.1242 74.64 46.9082 74.64ZM69.3175 64.608V78H65.2135V76.176C64.7975 76.768 64.2295 77.248 63.5095 77.616C62.8055 77.968 62.0215 78.144 61.1575 78.144C60.1335 78.144 59.2295 77.92 58.4455 77.472C57.6615 77.008 57.0535 76.344 56.6215 75.48C56.1895 74.616 55.9735 73.6 55.9735 72.432V64.608H60.0535V71.88C60.0535 72.776 60.2855 73.472 60.7495 73.968C61.2135 74.464 61.8375 74.712 62.6215 74.712C63.4215 74.712 64.0535 74.464 64.5175 73.968C64.9815 73.472 65.2135 72.776 65.2135 71.88V64.608H69.3175Z" fill="black"/>
<circle cx="152" cy="70" r="69" stroke="black" stroke-width="2"/>
<path d="M180.089 75.024H173.801L172.793 78H168.497L174.593 61.152H179.345L185.441 78H181.097L180.089 75.024ZM179.033 71.856L176.945 65.688L174.881 71.856H179.033ZM191.401 61.152V78H187.297V61.152H191.401Z" fill="black"/>
</svg>
